G04 Layer: BottomSolderMaskLayer*
G04 EasyEDA v6.4.20.6, 2021-07-19T17:35:24+02:00*
G04 4fc8b908a01b444f87dbcbd8e6e61994,c893d1cfc3b04c85b30658aade316d97,10*
G04 Gerber Generator version 0.2*
G04 Scale: 100 percent, Rotated: No, Reflected: No *
G04 Dimensions in millimeters *
G04 leading zeros omitted , absolute positions ,4 integer and 5 decimal *
%FSLAX45Y45*%
%MOMM*%

%ADD47C,1.4016*%
%ADD52C,1.9016*%
%ADD59C,1.1016*%
%ADD69C,2.1016*%

%LPD*%
D47*
X341495Y-880008D02*
G01*
X251495Y-880008D01*
X341495Y-160020D02*
G01*
X251495Y-160020D01*
G36*
X676910Y-945134D02*
G01*
X676910Y-754887D01*
X867155Y-754887D01*
X867155Y-945134D01*
G37*
D52*
G01*
X1026007Y-850011D03*
G01*
X1280007Y-850011D03*
G01*
X1534007Y-850011D03*
G01*
X1788007Y-850011D03*
G36*
X3414522Y-888745D02*
G01*
X3414522Y-778510D01*
X3524504Y-778510D01*
X3524504Y-888745D01*
G37*
D59*
G01*
X3596487Y-833704D03*
G01*
X3723487Y-833704D03*
G01*
X3850487Y-833704D03*
G36*
X5374893Y-374650D02*
G01*
X5374893Y-264413D01*
X5485129Y-264413D01*
X5485129Y-374650D01*
G37*
G01*
X5430011Y-446506D03*
G01*
X5430011Y-573506D03*
G01*
X5430011Y-700506D03*
G36*
X5651500Y-284987D02*
G01*
X5651500Y-175005D01*
X5761481Y-175005D01*
X5761481Y-284987D01*
G37*
G01*
X5833516Y-229996D03*
G36*
X5651500Y-845057D02*
G01*
X5651500Y-734821D01*
X5761481Y-734821D01*
X5761481Y-845057D01*
G37*
G01*
X5833516Y-789990D03*
D47*
G01*
X563498Y-277520D03*
G01*
X563498Y-762507D03*
G36*
X1021842Y-325120D02*
G01*
X1021842Y-114807D01*
X1232154Y-114807D01*
X1232154Y-325120D01*
G37*
D69*
G01*
X872997Y-219989D03*
G36*
X1039876Y-482092D02*
G01*
X1039876Y-417829D01*
X1106678Y-417829D01*
X1106678Y-482092D01*
G37*
G36*
X953262Y-482092D02*
G01*
X953262Y-417829D01*
X1020063Y-417829D01*
X1020063Y-482092D01*
G37*
G36*
X1039876Y-652018D02*
G01*
X1039876Y-588010D01*
X1106678Y-588010D01*
X1106678Y-652018D01*
G37*
G36*
X953262Y-652018D02*
G01*
X953262Y-588010D01*
X1020063Y-588010D01*
X1020063Y-652018D01*
G37*
G36*
X559815Y-482092D02*
G01*
X559815Y-417829D01*
X626618Y-417829D01*
X626618Y-482092D01*
G37*
G36*
X473455Y-482092D02*
G01*
X473455Y-417829D01*
X540004Y-417829D01*
X540004Y-482092D01*
G37*
G36*
X559815Y-652018D02*
G01*
X559815Y-588010D01*
X626618Y-588010D01*
X626618Y-652018D01*
G37*
G36*
X473455Y-652018D02*
G01*
X473455Y-588010D01*
X540004Y-588010D01*
X540004Y-652018D01*
G37*
M02*
