G04 Layer: TopLayer*
G04 EasyEDA v6.4.20.6, 2021-07-19T17:35:24+02:00*
G04 4fc8b908a01b444f87dbcbd8e6e61994,c893d1cfc3b04c85b30658aade316d97,10*
G04 Gerber Generator version 0.2*
G04 Scale: 100 percent, Rotated: No, Reflected: No *
G04 Dimensions in millimeters *
G04 leading zeros omitted , absolute positions ,4 integer and 5 decimal *
%FSLAX45Y45*%
%MOMM*%

%ADD11C,0.5000*%
%ADD12C,0.5300*%
%ADD13C,0.2800*%
%ADD14C,0.3000*%
%ADD15C,0.4000*%
%ADD16C,0.3640*%
%ADD17C,0.6096*%
%ADD18R,0.5400X0.7901*%
%ADD19R,1.2960X1.7575*%
%ADD20R,1.0000X0.6000*%
%ADD22R,0.5400X0.5657*%
%ADD27R,0.7000X0.6000*%
%ADD28R,0.7000X1.2500*%
%ADD29R,1.2500X0.7000*%
%ADD31R,0.2800X0.5000*%
%ADD32R,0.5000X0.2800*%
%ADD33R,2.0000X0.4000*%
%ADD35C,1.8000*%
%ADD36R,1.0000X1.0000*%
%ADD37C,1.0000*%
%ADD38C,1.3000*%
%ADD39R,2.0000X2.0000*%
%ADD40C,2.0000*%

%LPD*%
G36*
X1044194Y-340004D02*
G01*
X1040333Y-339242D01*
X1037031Y-337007D01*
X1022959Y-322986D01*
X1020775Y-319684D01*
X1020013Y-315772D01*
X1020013Y-110185D01*
X1020775Y-106273D01*
X1022959Y-102971D01*
X1026261Y-100787D01*
X1030173Y-100025D01*
X1456486Y-100025D01*
X1460347Y-100736D01*
X1463598Y-102920D01*
X1465834Y-106121D01*
X1466646Y-109931D01*
X1465986Y-113792D01*
X1463903Y-117144D01*
X1322984Y-266801D01*
X1319631Y-269189D01*
X1315618Y-270002D01*
X1310182Y-270154D01*
X1309979Y-271018D01*
X1309979Y-329844D01*
X1309217Y-333705D01*
X1307033Y-337007D01*
X1303731Y-339242D01*
X1299819Y-340004D01*
G37*

%LPD*%
G36*
X1484223Y-550011D02*
G01*
X1480312Y-549249D01*
X1477010Y-547014D01*
X1472996Y-542950D01*
X1470761Y-539699D01*
X1469999Y-535787D01*
X1469999Y-504190D01*
X1470406Y-502005D01*
X1469999Y-499821D01*
X1469999Y-381000D01*
X1470406Y-378155D01*
X1471574Y-375564D01*
X1473301Y-372821D01*
X1475181Y-367334D01*
X1475943Y-361035D01*
X1475943Y-308965D01*
X1475232Y-302717D01*
X1472641Y-295706D01*
X1471980Y-291947D01*
X1472844Y-288188D01*
X1474978Y-285038D01*
X1557020Y-202996D01*
X1560322Y-200761D01*
X1564182Y-199999D01*
X1739849Y-199999D01*
X1743710Y-200761D01*
X1747012Y-202996D01*
X1749247Y-206248D01*
X1750009Y-210159D01*
X1750009Y-499821D01*
X1749247Y-503732D01*
X1747012Y-507034D01*
X1743710Y-509219D01*
X1739849Y-509981D01*
X1599996Y-509981D01*
X1599996Y-539851D01*
X1599234Y-543712D01*
X1596999Y-547014D01*
X1593748Y-549249D01*
X1589836Y-550011D01*
G37*

%LPD*%
G36*
X2017979Y-620014D02*
G01*
X2009444Y-619099D01*
X1910588Y-619099D01*
X1905101Y-619709D01*
X1902104Y-619607D01*
X1899259Y-618591D01*
X1896821Y-616813D01*
X1892960Y-612952D01*
X1890775Y-609701D01*
X1890014Y-605790D01*
X1890014Y-400151D01*
X1890775Y-396290D01*
X1892960Y-392988D01*
X1896262Y-390753D01*
X1900174Y-389991D01*
X2349855Y-389991D01*
X2353716Y-390753D01*
X2357018Y-392988D01*
X2359202Y-396290D01*
X2360015Y-400151D01*
X2360015Y-609854D01*
X2359202Y-613714D01*
X2357018Y-617016D01*
X2353716Y-619201D01*
X2349855Y-620014D01*
G37*

%LPD*%
G36*
X1430172Y-719988D02*
G01*
X1426260Y-719226D01*
X1422958Y-717042D01*
X1420774Y-713740D01*
X1420012Y-709828D01*
X1420012Y-590753D01*
X1420876Y-586587D01*
X1423365Y-583184D01*
X1427073Y-581050D01*
X1431290Y-580644D01*
X1433576Y-580898D01*
X1486408Y-580898D01*
X1495044Y-579983D01*
X1639011Y-579983D01*
X1639976Y-579018D01*
X1639976Y-551078D01*
X1640789Y-547166D01*
X1642973Y-543864D01*
X1646275Y-541680D01*
X1650136Y-540918D01*
X1749450Y-540918D01*
X1758086Y-540004D01*
X1839823Y-540004D01*
X1843735Y-540766D01*
X1847037Y-542950D01*
X1849221Y-546252D01*
X1849983Y-550164D01*
X1849983Y-709828D01*
X1849221Y-713740D01*
X1847037Y-717042D01*
X1843735Y-719226D01*
X1839823Y-719988D01*
G37*

%LPD*%
G36*
X1110183Y-735025D02*
G01*
X1106322Y-734263D01*
X1103020Y-732078D01*
X1100785Y-728776D01*
X1100023Y-724865D01*
X1100023Y-446024D01*
X1099312Y-444347D01*
X1066139Y-411175D01*
X1064260Y-408533D01*
X1060450Y-400913D01*
X1059180Y-399999D01*
X731164Y-399999D01*
X728929Y-400507D01*
X712165Y-408940D01*
X707593Y-410006D01*
X670763Y-410006D01*
X662178Y-409092D01*
X470154Y-409092D01*
X466293Y-408330D01*
X462991Y-406095D01*
X460756Y-402844D01*
X459993Y-398932D01*
X459993Y-380136D01*
X460756Y-376275D01*
X462991Y-372973D01*
X466293Y-370789D01*
X470154Y-369976D01*
X1319022Y-369976D01*
X1320647Y-369417D01*
X1367129Y-327660D01*
X1370279Y-325729D01*
X1373936Y-325018D01*
X1429867Y-325018D01*
X1433728Y-325780D01*
X1437030Y-328015D01*
X1439265Y-331317D01*
X1440027Y-335178D01*
X1440027Y-420827D01*
X1439265Y-424688D01*
X1437030Y-427990D01*
X1370736Y-494334D01*
X1370025Y-496011D01*
X1370025Y-724865D01*
X1369263Y-728776D01*
X1367028Y-732078D01*
X1363776Y-734263D01*
X1359865Y-735025D01*
X1293368Y-735025D01*
X1287272Y-734364D01*
X1272743Y-734364D01*
X1266647Y-735025D01*
G37*

%LPD*%
G36*
X470154Y-839978D02*
G01*
X466293Y-839216D01*
X462991Y-837031D01*
X460756Y-833729D01*
X459993Y-829818D01*
X459993Y-641096D01*
X460756Y-637184D01*
X462991Y-633882D01*
X466293Y-631698D01*
X470154Y-630936D01*
X649833Y-630936D01*
X653745Y-631698D01*
X657047Y-633882D01*
X659231Y-637184D01*
X659993Y-641096D01*
X659993Y-743813D01*
X659384Y-747318D01*
X656793Y-754329D01*
X656082Y-760577D01*
X656082Y-829818D01*
X655320Y-833729D01*
X653135Y-837031D01*
X649833Y-839216D01*
X645922Y-839978D01*
G37*

%LPD*%
D11*
X4104640Y-469900D02*
G01*
X4104640Y-480060D01*
X4230115Y-480060D01*
X2160000Y-838631D02*
G01*
X2208631Y-790000D01*
X2290000Y-790000D01*
D12*
X5233161Y-590042D02*
G01*
X5233161Y-496823D01*
X5283454Y-446531D01*
X5430011Y-446531D01*
D13*
X3990086Y-355600D02*
G01*
X3990086Y-379984D01*
X4020058Y-409955D01*
X4088129Y-409955D01*
X4088129Y-453644D01*
X4104640Y-469900D01*
D14*
X563879Y-455018D02*
G01*
X829995Y-455018D01*
X829995Y-459994D01*
X901369Y-659993D02*
G01*
X989998Y-571365D01*
X989998Y-539998D01*
D15*
X1686813Y-130047D02*
G01*
X1549907Y-130047D01*
X1396492Y-283463D01*
X1396492Y-335026D01*
D13*
X4222495Y-264921D02*
G01*
X4044950Y-264921D01*
X3990086Y-319786D01*
X3990086Y-355600D01*
D14*
X3596386Y-833628D02*
G01*
X3596386Y-816610D01*
X3500120Y-720089D01*
X3160013Y-720089D01*
X3139947Y-739902D01*
X3139947Y-796797D01*
X3140001Y-796719D02*
G01*
X3136722Y-799998D01*
X3039999Y-799998D01*
X3039999Y-849998D01*
X2972506Y-849096D02*
G01*
X2972506Y-767481D01*
X3009993Y-729995D01*
X3029991Y-729995D01*
X3850487Y-833704D02*
G01*
X3849992Y-749998D01*
X3839992Y-739998D01*
X3669992Y-569998D01*
X3669992Y-154990D01*
D11*
X740003Y-693293D02*
G01*
X632713Y-693293D01*
X563498Y-762507D01*
X2249931Y-409955D02*
G01*
X2249931Y-239936D01*
X2139995Y-129999D01*
X2073275Y-129997D01*
X2160015Y-501395D02*
G01*
X2249931Y-409955D01*
X2281681Y-489999D02*
G01*
X2270310Y-501370D01*
X2159990Y-501370D01*
X2050008Y-299999D02*
G01*
X1969996Y-219986D01*
X1929991Y-219986D01*
D16*
X2387475Y-849101D02*
G01*
X2387475Y-727483D01*
X2369997Y-710006D01*
X2517393Y-849121D02*
G01*
X2519934Y-690118D01*
X2429992Y-359994D02*
G01*
X2429992Y-479996D01*
X2479997Y-530001D01*
X2549997Y-530001D01*
X2699989Y-679996D01*
X2737792Y-680008D01*
X2777517Y-722472D01*
X2777517Y-849101D01*
X2759994Y-619998D02*
G01*
X2842516Y-702520D01*
X2842516Y-849101D01*
D14*
X2907482Y-849096D02*
G01*
X2907482Y-629996D01*
X2899994Y-629996D01*
D16*
X2517498Y-150906D02*
G01*
X2517498Y-302486D01*
X2499995Y-319989D01*
X2582496Y-150906D02*
G01*
X2582496Y-312473D01*
X2590012Y-319989D01*
X2712493Y-150906D02*
G01*
X2712493Y-297507D01*
X2690012Y-319989D01*
X2350008Y-289991D02*
G01*
X2387475Y-252524D01*
X2387475Y-150906D01*
D14*
X2777490Y-150876D02*
G01*
X2777490Y-352552D01*
X2649981Y-480060D01*
D11*
X3120897Y-449834D02*
G01*
X3101086Y-430021D01*
X3020059Y-430021D01*
X3119881Y-320039D02*
G01*
X3169920Y-320039D01*
X3199891Y-350012D01*
X3199891Y-389889D01*
D16*
X2972513Y-150906D02*
G01*
X2972513Y-292519D01*
X3020837Y-340842D01*
X3120897Y-340842D01*
D11*
X3179998Y-605005D02*
G01*
X3184999Y-610006D01*
X3350006Y-610006D01*
D14*
X3810000Y-154990D02*
G01*
X4060012Y-154990D01*
X3179998Y-154993D02*
G01*
X3234989Y-99999D01*
X3399993Y-99999D01*
D11*
X4408637Y-850000D02*
G01*
X4458639Y-799998D01*
X4539995Y-799998D01*
D14*
X4510024Y-545592D02*
G01*
X4484624Y-545592D01*
X4403597Y-626363D01*
X4249927Y-626363D01*
X3995488Y-469999D02*
G01*
X3915481Y-389991D01*
X3810000Y-389991D01*
D13*
X4334990Y-252498D02*
G01*
X4334990Y-219999D01*
X4334990Y-215013D01*
X4399991Y-150012D01*
X4285010Y-252498D02*
G01*
X4285010Y-184993D01*
X4319981Y-150022D01*
X4319981Y-80010D01*
X4397502Y-315010D02*
G01*
X4525002Y-315010D01*
X4569990Y-359999D01*
X4569990Y-485394D01*
X4397499Y-264995D02*
G01*
X4480001Y-264995D01*
X4480001Y-129997D01*
X4222501Y-315008D02*
G01*
X4059986Y-315008D01*
X4059986Y-350012D01*
D11*
X4230115Y-480060D02*
G01*
X4249927Y-500126D01*
X4249927Y-739902D01*
X4359909Y-850137D01*
X4408677Y-850137D01*
D13*
X4222495Y-415010D02*
G01*
X4222495Y-480060D01*
X4285005Y-427507D02*
G01*
X4285005Y-465048D01*
X4249927Y-500126D01*
D11*
X4510003Y-654509D02*
G01*
X4454512Y-710001D01*
X4390001Y-710001D01*
D14*
X4510024Y-545592D02*
G01*
X4569968Y-485394D01*
D11*
X4985011Y-169999D02*
G01*
X5019982Y-169999D01*
X5069992Y-119989D01*
X5069982Y-119999D01*
X5069992Y-119989D01*
X4800005Y-854999D02*
G01*
X4815006Y-870000D01*
X4920005Y-870000D01*
X4800091Y-530097D02*
G01*
X4890089Y-530097D01*
X5009989Y-649998D01*
X5089989Y-649998D01*
X5146725Y-706734D01*
X5146725Y-720013D01*
X4750054Y-370078D02*
G01*
X4759959Y-379984D01*
X4759959Y-489965D01*
X4800091Y-530097D01*
X5000002Y-760001D02*
G01*
X5070002Y-830000D01*
X5089989Y-849998D01*
X5089989Y-849998D01*
X5146720Y-850000D01*
D12*
X5430001Y-700501D02*
G01*
X5420001Y-710501D01*
X5420001Y-810000D01*
X5380001Y-850000D01*
X5233283Y-850000D01*
D14*
X562714Y-520011D02*
G01*
X740003Y-520011D01*
X740003Y-519988D01*
X739998Y-606722D02*
G01*
X718289Y-585012D01*
X562711Y-585012D01*
X1773275Y-129994D02*
G01*
X1829993Y-186715D01*
X1829993Y-299999D01*
D11*
X2160000Y-838631D02*
G01*
X2221369Y-900000D01*
X2280000Y-900000D01*
D14*
X3330003Y-883282D02*
G01*
X3326729Y-880008D01*
X3239998Y-880008D01*
X3330000Y-796719D02*
G01*
X3326719Y-800000D01*
X3240001Y-800000D01*
D11*
X4071371Y-850000D02*
G01*
X3970002Y-748631D01*
X3970002Y-740001D01*
X4071371Y-850000D02*
G01*
X4110001Y-811369D01*
X4110001Y-750001D01*
D13*
X4222501Y-364995D02*
G01*
X4155010Y-364995D01*
X4139996Y-380009D01*
X4397499Y-415008D02*
G01*
X4399991Y-417499D01*
X4399991Y-499998D01*
X4334990Y-427502D02*
G01*
X4334990Y-554992D01*
X4329988Y-559993D01*
D14*
X4649998Y-503280D02*
G01*
X4649998Y-580009D01*
X4729988Y-580009D01*
D11*
X4408637Y-850900D02*
G01*
X4437745Y-880008D01*
X4539995Y-880008D01*
D14*
X4650003Y-783282D02*
G01*
X4650003Y-880000D01*
X4866721Y-439999D02*
G01*
X4860002Y-433280D01*
X4860002Y-349999D01*
X4953284Y-439999D02*
G01*
X4980002Y-413280D01*
X4980002Y-289999D01*
X5000002Y-269999D01*
X5080002Y-269999D01*
X5080002Y-269999D02*
G01*
X5174998Y-175003D01*
X5174998Y-169999D01*
D11*
X5080002Y-369999D02*
G01*
X5146720Y-436717D01*
X5146720Y-590001D01*
D12*
X5233283Y-720001D02*
G01*
X5379783Y-573501D01*
X5430001Y-573501D01*
D14*
X4655007Y-169999D02*
G01*
X4625007Y-139999D01*
X4560003Y-139999D01*
X5706503Y-789998D02*
G01*
X5770003Y-726498D01*
X5770003Y-650001D01*
X5819978Y-600026D01*
X5819978Y-580009D01*
X5719978Y-440004D02*
G01*
X5706503Y-426529D01*
X5706503Y-230002D01*
X5719978Y-580009D02*
G01*
X5719978Y-510004D01*
X5919998Y-510004D01*
X5919998Y-640003D01*
X5890008Y-669998D01*
X5890008Y-700001D01*
X5833503Y-756498D01*
X5833503Y-789998D01*
X4650003Y-416717D02*
G01*
X4640003Y-406717D01*
X4640003Y-299999D01*
X4670003Y-269999D01*
X4730003Y-269999D01*
X4830003Y-169999D01*
X4844999Y-169999D01*
X4650003Y-696719D02*
G01*
X4681717Y-665005D01*
X4800003Y-665005D01*
D13*
X4397502Y-364997D02*
G01*
X4435093Y-364997D01*
X4480052Y-409955D01*
X4480052Y-459994D01*
D14*
X3330000Y-796719D02*
G01*
X3432522Y-796719D01*
X3469497Y-833694D01*
X1986711Y-129997D02*
G01*
X1880006Y-129997D01*
X1880003Y-130002D01*
X5833503Y-789998D02*
G01*
X5810001Y-813501D01*
X5810001Y-870000D01*
X5790008Y-889998D01*
X5600006Y-889998D01*
X5600006Y-700001D01*
X5719978Y-580026D01*
X5719978Y-580009D01*
X5819978Y-440004D02*
G01*
X5833503Y-426478D01*
X5833503Y-230002D01*
X3240001Y-880000D02*
G01*
X3236719Y-883282D01*
X3140001Y-883282D01*
D11*
X4060007Y-605005D02*
G01*
X3995005Y-540004D01*
X3880002Y-540004D01*
D14*
X3170001Y-164993D02*
G01*
X3180006Y-154990D01*
X4060012Y-154990D01*
D16*
X2972511Y-236801D02*
G01*
X2972511Y-65001D01*
X2907487Y-236801D02*
G01*
X2907487Y-65001D01*
X2842513Y-236801D02*
G01*
X2842513Y-65001D01*
X2777515Y-236801D02*
G01*
X2777515Y-65001D01*
X2712491Y-236801D02*
G01*
X2712491Y-65001D01*
X2647467Y-236801D02*
G01*
X2647467Y-65001D01*
X2582494Y-236801D02*
G01*
X2582494Y-65001D01*
X2517495Y-236801D02*
G01*
X2517495Y-65001D01*
X2452497Y-236801D02*
G01*
X2452497Y-65001D01*
X2387472Y-236801D02*
G01*
X2387472Y-65001D01*
X2972511Y-934996D02*
G01*
X2972511Y-763196D01*
X2907487Y-934996D02*
G01*
X2907487Y-763196D01*
X2842513Y-934996D02*
G01*
X2842513Y-763196D01*
X2777515Y-934996D02*
G01*
X2777515Y-763196D01*
X2712491Y-934996D02*
G01*
X2712491Y-763196D01*
X2647467Y-934996D02*
G01*
X2647467Y-763196D01*
X2582494Y-934996D02*
G01*
X2582494Y-763196D01*
X2517495Y-934996D02*
G01*
X2517495Y-763196D01*
X2452497Y-934996D02*
G01*
X2452497Y-763196D01*
X2387472Y-934996D02*
G01*
X2387472Y-763196D01*
G36*
X1486999Y-555000D02*
G01*
X1432999Y-555000D01*
X1432999Y-475990D01*
X1486999Y-475990D01*
G37*
D18*
G01*
X1459992Y-624509D03*
G36*
X2224801Y-589252D02*
G01*
X2095200Y-589252D01*
X2095200Y-413501D01*
X2224801Y-413501D01*
G37*
D19*
G01*
X2159990Y-838631D03*
D20*
G01*
X1960016Y-485012D03*
G01*
X1960016Y-675004D03*
G01*
X1699996Y-675004D03*
G01*
X1699996Y-580009D03*
G01*
X1699996Y-485012D03*
G36*
X4925004Y-466999D02*
G01*
X4925004Y-412998D01*
X4981567Y-412998D01*
X4981567Y-466999D01*
G37*
G36*
X4895001Y-466999D02*
G01*
X4895001Y-412998D01*
X4838438Y-412998D01*
X4838438Y-466999D01*
G37*
G36*
X4677003Y-444997D02*
G01*
X4623003Y-444997D01*
X4623003Y-388434D01*
X4677003Y-388434D01*
G37*
D22*
G01*
X4650003Y-503275D03*
G36*
X4677003Y-724999D02*
G01*
X4623003Y-724999D01*
X4623003Y-668436D01*
X4677003Y-668436D01*
G37*
G01*
X4650003Y-783285D03*
G36*
X1150749Y-724801D02*
G01*
X1150749Y-595200D01*
X1326499Y-595200D01*
X1326499Y-724801D01*
G37*
G36*
X989251Y-724801D02*
G01*
X989251Y-595200D01*
X813501Y-595200D01*
X813501Y-724801D01*
G37*
G36*
X4537003Y-585000D02*
G01*
X4483003Y-585000D01*
X4483003Y-505990D01*
X4537003Y-505990D01*
G37*
D18*
G01*
X4509998Y-654507D03*
G36*
X4320750Y-914801D02*
G01*
X4320750Y-785200D01*
X4496501Y-785200D01*
X4496501Y-914801D01*
G37*
G36*
X4159250Y-914801D02*
G01*
X4159250Y-785200D01*
X3983502Y-785200D01*
X3983502Y-914801D01*
G37*
G36*
X4065003Y-496999D02*
G01*
X4065003Y-442998D01*
X4144012Y-442998D01*
X4144012Y-496999D01*
G37*
G36*
X4035000Y-496999D02*
G01*
X4035000Y-442998D01*
X3955991Y-442998D01*
X3955991Y-496999D01*
G37*
G36*
X3147890Y-380337D02*
G01*
X3093890Y-380337D01*
X3093890Y-301327D01*
X3147890Y-301327D01*
G37*
G01*
X3120897Y-449834D03*
G36*
X1343007Y-118399D02*
G01*
X1343007Y-171599D01*
X1450007Y-171599D01*
X1450007Y-118399D01*
G37*
G36*
X1343007Y-308399D02*
G01*
X1343007Y-361599D01*
X1450007Y-361599D01*
X1450007Y-308399D01*
G37*
G36*
X1570007Y-213400D02*
G01*
X1570007Y-266598D01*
X1677007Y-266598D01*
X1677007Y-213400D01*
G37*
G36*
X1779993Y-237510D02*
G01*
X1879993Y-237510D01*
X1879993Y-362508D01*
X1779993Y-362508D01*
G37*
G36*
X2000008Y-237510D02*
G01*
X2100008Y-237510D01*
X2100008Y-362508D01*
X2000008Y-362508D01*
G37*
D27*
G01*
X5719978Y-440004D03*
G01*
X5819978Y-440004D03*
G01*
X5719978Y-580009D03*
G01*
X5819978Y-580009D03*
D28*
G01*
X5174995Y-170002D03*
G01*
X4985004Y-170002D03*
G01*
X5080000Y-370001D03*
G01*
X4844999Y-170002D03*
G01*
X4655007Y-170002D03*
G01*
X4750003Y-370001D03*
D29*
G01*
X4800015Y-664997D03*
G01*
X4800015Y-854989D03*
G01*
X5000015Y-759993D03*
G36*
X5205003Y-877001D02*
G01*
X5205003Y-823000D01*
X5261566Y-823000D01*
X5261566Y-877001D01*
G37*
G36*
X5175001Y-877001D02*
G01*
X5175001Y-823000D01*
X5118437Y-823000D01*
X5118437Y-877001D01*
G37*
G36*
X5205003Y-747001D02*
G01*
X5205003Y-693000D01*
X5261566Y-693000D01*
X5261566Y-747001D01*
G37*
G36*
X5175001Y-747001D02*
G01*
X5175001Y-693000D01*
X5118437Y-693000D01*
X5118437Y-747001D01*
G37*
G36*
X5205003Y-617001D02*
G01*
X5205003Y-563001D01*
X5261566Y-563001D01*
X5261566Y-617001D01*
G37*
G36*
X5175001Y-617001D02*
G01*
X5175001Y-563001D01*
X5118437Y-563001D01*
X5118437Y-617001D01*
G37*
G36*
X713000Y-665002D02*
G01*
X767001Y-665002D01*
X767001Y-721565D01*
X713000Y-721565D01*
G37*
D22*
G01*
X740003Y-606729D03*
G36*
X1715000Y-102999D02*
G01*
X1715000Y-156999D01*
X1658437Y-156999D01*
X1658437Y-102999D01*
G37*
G36*
X1745002Y-102999D02*
G01*
X1745002Y-156999D01*
X1801566Y-156999D01*
X1801566Y-102999D01*
G37*
G36*
X2045002Y-156999D02*
G01*
X2045002Y-102999D01*
X2101565Y-102999D01*
X2101565Y-156999D01*
G37*
G36*
X2014999Y-156999D02*
G01*
X2014999Y-102999D01*
X1958436Y-102999D01*
X1958436Y-156999D01*
G37*
G36*
X3303000Y-855002D02*
G01*
X3357001Y-855002D01*
X3357001Y-911565D01*
X3303000Y-911565D01*
G37*
G01*
X3329990Y-796721D03*
G36*
X3113001Y-855002D02*
G01*
X3167001Y-855002D01*
X3167001Y-911565D01*
X3113001Y-911565D01*
G37*
G01*
X3139998Y-796721D03*
G36*
X3069998Y-79992D02*
G01*
X3289998Y-79992D01*
X3289998Y-229994D01*
X3069998Y-229994D01*
G37*
G36*
X3069998Y-530004D02*
G01*
X3289998Y-530004D01*
X3289998Y-680006D01*
X3069998Y-680006D01*
G37*
G36*
X3950007Y-79992D02*
G01*
X4170006Y-79992D01*
X4170006Y-229994D01*
X3950007Y-229994D01*
G37*
G36*
X3950007Y-530004D02*
G01*
X4170006Y-530004D01*
X4170006Y-680006D01*
X3950007Y-680006D01*
G37*
D31*
G01*
X4334992Y-427507D03*
G01*
X4285005Y-427507D03*
D32*
G01*
X4222495Y-415010D03*
G01*
X4222495Y-364997D03*
G01*
X4222495Y-315010D03*
G01*
X4222495Y-264998D03*
D31*
G01*
X4285005Y-252501D03*
G01*
X4334992Y-252501D03*
D32*
G01*
X4397502Y-264998D03*
G01*
X4397502Y-315010D03*
G01*
X4397502Y-364997D03*
G01*
X4397502Y-415010D03*
D33*
G01*
X562711Y-650011D03*
G01*
X562711Y-585012D03*
G01*
X562711Y-520014D03*
G01*
X562711Y-454990D03*
G01*
X562711Y-389991D03*
G36*
X682000Y-760001D02*
G01*
X861999Y-760001D01*
X861999Y-940000D01*
X682000Y-940000D01*
G37*
D35*
G01*
X1026007Y-850011D03*
G01*
X1280007Y-850011D03*
G01*
X1534007Y-850011D03*
G01*
X1788007Y-850011D03*
G36*
X3419497Y-783694D02*
G01*
X3519497Y-783694D01*
X3519497Y-883693D01*
X3419497Y-883693D01*
G37*
D37*
G01*
X3596487Y-833704D03*
G01*
X3723487Y-833704D03*
G01*
X3850487Y-833704D03*
D36*
G01*
X5430011Y-319506D03*
D37*
G01*
X5430011Y-446506D03*
G01*
X5430011Y-573506D03*
G01*
X5430011Y-700506D03*
G36*
X5656503Y-179999D02*
G01*
X5756503Y-179999D01*
X5756503Y-279999D01*
X5656503Y-279999D01*
G37*
G01*
X5833516Y-229996D03*
G36*
X5656503Y-740001D02*
G01*
X5756503Y-740001D01*
X5756503Y-840000D01*
X5656503Y-840000D01*
G37*
G01*
X5833516Y-789990D03*
D38*
G01*
X563498Y-277520D03*
G01*
X563498Y-762507D03*
D39*
G01*
X1126997Y-219989D03*
D40*
G01*
X872997Y-219989D03*
D17*
G01*
X740003Y-519988D03*
G01*
X829995Y-459994D03*
G01*
X1229995Y-550011D03*
G01*
X1280007Y-410006D03*
G01*
X319989Y-450011D03*
G01*
X319989Y-620013D03*
G01*
X1580006Y-629996D03*
G01*
X1810004Y-580009D03*
G01*
X1810004Y-650011D03*
G01*
X1929993Y-219989D03*
G01*
X2290013Y-789990D03*
G01*
X2280005Y-899998D03*
G01*
X2369997Y-710006D03*
G01*
X3029991Y-729995D03*
G01*
X2350008Y-289991D03*
G01*
X2499995Y-319989D03*
G01*
X2590012Y-319989D03*
G01*
X2690012Y-319989D03*
G01*
X2650007Y-480009D03*
G01*
X3199993Y-389991D03*
G01*
X3019983Y-429996D03*
G01*
X3239998Y-880008D03*
G01*
X3239998Y-799998D03*
G01*
X3350006Y-610006D03*
G01*
X3880002Y-540004D03*
G01*
X3969994Y-748639D03*
G01*
X4109999Y-750011D03*
G01*
X4539995Y-880008D03*
G01*
X4390009Y-710006D03*
G01*
X4139996Y-380009D03*
G01*
X4059986Y-350012D03*
G01*
X4319981Y-80010D03*
G01*
X4480001Y-129997D03*
G01*
X4399991Y-499998D03*
G01*
X4329988Y-559993D03*
G01*
X4480001Y-459994D03*
G01*
X3810000Y-389991D03*
G01*
X4399991Y-150012D03*
G01*
X4729988Y-580009D03*
G01*
X4650003Y-880008D03*
G01*
X4860010Y-350012D03*
G01*
X4920005Y-870000D03*
G01*
X4560011Y-140004D03*
G01*
X5069992Y-119989D03*
G01*
X1599996Y-329996D03*
G01*
X2429992Y-359994D03*
G01*
X4539995Y-799998D03*
G01*
X2759989Y-619988D03*
G01*
X1880006Y-129997D03*
G01*
X2899994Y-629996D03*
G01*
X2519984Y-689990D03*
G01*
X3399993Y-99999D03*
G01*
X2281681Y-489991D03*
G01*
X2249931Y-409955D03*
G01*
X1659991Y-399999D03*
G01*
X1550009Y-399999D03*
G01*
X989990Y-540004D03*
G01*
X3039999Y-850011D03*
G01*
X899998Y-540004D03*
D38*
X341495Y-880008D02*
G01*
X251495Y-880008D01*
X341495Y-160020D02*
G01*
X251495Y-160020D01*
M02*
