G04 Layer: BottomPasteMaskLayer*
G04 EasyEDA v6.4.20.6, 2021-07-19T17:35:24+02:00*
G04 4fc8b908a01b444f87dbcbd8e6e61994,c893d1cfc3b04c85b30658aade316d97,10*
G04 Gerber Generator version 0.2*
G04 Scale: 100 percent, Rotated: No, Reflected: No *
G04 Dimensions in millimeters *
G04 leading zeros omitted , absolute positions ,4 integer and 5 decimal *
%FSLAX45Y45*%
%MOMM*%

%ADD10C,0.0001*%

%LPD*%
G36*
X1047496Y-423011D02*
G01*
X1043482Y-427024D01*
X1043482Y-472998D01*
X1047496Y-477012D01*
X1097584Y-477012D01*
X1101547Y-472998D01*
X1101547Y-427024D01*
X1097584Y-423011D01*
G37*
G36*
X962456Y-423011D02*
G01*
X958443Y-427024D01*
X958443Y-472998D01*
X962456Y-477012D01*
X1012494Y-477012D01*
X1016508Y-472998D01*
X1016508Y-427024D01*
X1012494Y-423011D01*
G37*
G36*
X1047496Y-592988D02*
G01*
X1043482Y-597001D01*
X1043482Y-643026D01*
X1047496Y-646988D01*
X1097584Y-646988D01*
X1101547Y-643026D01*
X1101547Y-597001D01*
X1097584Y-592988D01*
G37*
G36*
X962456Y-592988D02*
G01*
X958443Y-597001D01*
X958443Y-643026D01*
X962456Y-646988D01*
X1012494Y-646988D01*
X1016508Y-643026D01*
X1016508Y-597001D01*
X1012494Y-592988D01*
G37*
G36*
X567486Y-423011D02*
G01*
X563524Y-427024D01*
X563524Y-472998D01*
X567486Y-477012D01*
X617575Y-477012D01*
X621588Y-472998D01*
X621588Y-427024D01*
X617575Y-423011D01*
G37*
G36*
X482447Y-423011D02*
G01*
X478434Y-427024D01*
X478434Y-472998D01*
X482447Y-477012D01*
X532485Y-477012D01*
X536498Y-472998D01*
X536498Y-427024D01*
X532485Y-423011D01*
G37*
G36*
X567486Y-592988D02*
G01*
X563524Y-597001D01*
X563524Y-643026D01*
X567486Y-646988D01*
X617575Y-646988D01*
X621588Y-643026D01*
X621588Y-597001D01*
X617575Y-592988D01*
G37*
G36*
X482447Y-592988D02*
G01*
X478434Y-597001D01*
X478434Y-643026D01*
X482447Y-646988D01*
X532485Y-646988D01*
X536498Y-643026D01*
X536498Y-597001D01*
X532485Y-592988D01*
G37*
M02*
