G04 Layer: Inner1*
G04 EasyEDA v6.4.20.6, 2021-07-19T17:35:24+02:00*
G04 4fc8b908a01b444f87dbcbd8e6e61994,c893d1cfc3b04c85b30658aade316d97,10*
G04 Gerber Generator version 0.2*
G04 Scale: 100 percent, Rotated: No, Reflected: No *
G04 Dimensions in millimeters *
G04 leading zeros omitted , absolute positions ,4 integer and 5 decimal *
%FSLAX45Y45*%
%MOMM*%

%ADD17C,0.6096*%
%ADD35C,1.8000*%
%ADD36R,1.0000X1.0000*%
%ADD37C,1.0000*%
%ADD38C,1.3000*%
%ADD39R,2.0000X2.0000*%
%ADD40C,2.0000*%

%LPD*%
G36*
X4703064Y-929995D02*
G01*
X4698746Y-929030D01*
X4695240Y-926388D01*
X4693208Y-922477D01*
X4693056Y-918057D01*
X4694732Y-913993D01*
X4698796Y-908202D01*
X4702962Y-899261D01*
X4705502Y-889812D01*
X4706366Y-880008D01*
X4705502Y-870203D01*
X4702962Y-860755D01*
X4698796Y-851814D01*
X4693158Y-843787D01*
X4686249Y-836828D01*
X4678172Y-831189D01*
X4669282Y-827074D01*
X4659782Y-824534D01*
X4650028Y-823671D01*
X4640224Y-824534D01*
X4630724Y-827074D01*
X4624425Y-829970D01*
X4620514Y-830935D01*
X4616500Y-830275D01*
X4613097Y-828090D01*
X4610811Y-824737D01*
X4609998Y-820775D01*
X4609998Y-381050D01*
X4608982Y-380034D01*
X4206748Y-389839D01*
X4202988Y-389229D01*
X4199737Y-387248D01*
X4197451Y-384251D01*
X4196384Y-380542D01*
X4195470Y-370230D01*
X4192930Y-360730D01*
X4188815Y-351840D01*
X4183176Y-343763D01*
X4176217Y-336854D01*
X4168190Y-331216D01*
X4159250Y-327050D01*
X4149801Y-324510D01*
X4139996Y-323646D01*
X4130192Y-324510D01*
X4120489Y-327101D01*
X4116374Y-327355D01*
X4112514Y-325932D01*
X4109516Y-323037D01*
X4103115Y-313740D01*
X4096207Y-306832D01*
X4088180Y-301193D01*
X4079240Y-297078D01*
X4069791Y-294538D01*
X4059986Y-293674D01*
X4050182Y-294538D01*
X4040733Y-297078D01*
X4031792Y-301193D01*
X4023766Y-306832D01*
X4016806Y-313791D01*
X4011168Y-321818D01*
X4007053Y-330758D01*
X4004513Y-340207D01*
X4003649Y-350012D01*
X4004513Y-359816D01*
X4007053Y-369265D01*
X4011168Y-378206D01*
X4016806Y-386232D01*
X4023766Y-393192D01*
X4031792Y-398830D01*
X4040733Y-402945D01*
X4050182Y-405485D01*
X4059986Y-406349D01*
X4069791Y-405485D01*
X4079494Y-402894D01*
X4083608Y-402691D01*
X4087520Y-404114D01*
X4090517Y-407009D01*
X4095343Y-414121D01*
X4096969Y-418185D01*
X4096765Y-422554D01*
X4094683Y-426415D01*
X4091228Y-429056D01*
X4086961Y-430022D01*
X3869232Y-430022D01*
X3865270Y-429209D01*
X3861917Y-426872D01*
X3859733Y-423468D01*
X3859072Y-419506D01*
X3860037Y-415543D01*
X3862933Y-409244D01*
X3865473Y-399796D01*
X3866337Y-389991D01*
X3865473Y-380187D01*
X3862933Y-370738D01*
X3858818Y-361797D01*
X3853179Y-353771D01*
X3846220Y-346811D01*
X3838194Y-341172D01*
X3829253Y-337058D01*
X3819804Y-334518D01*
X3810000Y-333654D01*
X3800195Y-334518D01*
X3790746Y-337058D01*
X3781806Y-341172D01*
X3773779Y-346811D01*
X3766820Y-353771D01*
X3761181Y-361797D01*
X3757066Y-370738D01*
X3754526Y-380187D01*
X3753662Y-389991D01*
X3754526Y-399796D01*
X3757066Y-409244D01*
X3759962Y-415543D01*
X3760927Y-419506D01*
X3760266Y-423468D01*
X3758082Y-426872D01*
X3754729Y-429209D01*
X3750767Y-430022D01*
X3300171Y-430022D01*
X3296259Y-429209D01*
X3292957Y-427024D01*
X3290773Y-423722D01*
X3290011Y-419862D01*
X3290011Y-341020D01*
X3289300Y-339293D01*
X3250692Y-300685D01*
X3249015Y-300024D01*
X2794203Y-300024D01*
X2790291Y-299212D01*
X2787040Y-297027D01*
X2700680Y-210718D01*
X2699004Y-210007D01*
X2261006Y-210007D01*
X2259279Y-210718D01*
X2032965Y-437032D01*
X2029663Y-439216D01*
X2025802Y-439978D01*
X1750974Y-439978D01*
X1749298Y-440690D01*
X1712975Y-477012D01*
X1709674Y-479247D01*
X1705813Y-480009D01*
X1520139Y-480009D01*
X1516278Y-479247D01*
X1512976Y-477012D01*
X1510792Y-473709D01*
X1509979Y-469849D01*
X1509979Y-110185D01*
X1510792Y-106273D01*
X1512976Y-102971D01*
X1516278Y-100787D01*
X1520139Y-100025D01*
X1816709Y-100025D01*
X1820316Y-100685D01*
X1823466Y-102616D01*
X1825752Y-105562D01*
X1826768Y-109118D01*
X1826514Y-112776D01*
X1824532Y-120192D01*
X1823669Y-129997D01*
X1824532Y-139801D01*
X1827072Y-149250D01*
X1831187Y-158191D01*
X1836826Y-166217D01*
X1843786Y-173177D01*
X1851812Y-178816D01*
X1860753Y-182930D01*
X1870913Y-185674D01*
X1874824Y-187706D01*
X1877466Y-191211D01*
X1878431Y-195478D01*
X1874520Y-210210D01*
X1873656Y-220014D01*
X1874520Y-229768D01*
X1877060Y-239267D01*
X1881174Y-248158D01*
X1886813Y-256235D01*
X1893773Y-263144D01*
X1901799Y-268782D01*
X1910740Y-272948D01*
X1920189Y-275488D01*
X1929993Y-276352D01*
X1939798Y-275488D01*
X1949246Y-272948D01*
X1958187Y-268782D01*
X1966214Y-263144D01*
X1973173Y-256235D01*
X1978812Y-248158D01*
X1982927Y-239267D01*
X1985467Y-229768D01*
X1986330Y-220014D01*
X1985467Y-210210D01*
X1982927Y-200710D01*
X1978812Y-191820D01*
X1973173Y-183743D01*
X1966214Y-176834D01*
X1958187Y-171196D01*
X1949246Y-167030D01*
X1939086Y-164338D01*
X1935175Y-162306D01*
X1932533Y-158800D01*
X1931568Y-154482D01*
X1935480Y-139801D01*
X1936343Y-129997D01*
X1935480Y-120192D01*
X1933498Y-112776D01*
X1933244Y-109118D01*
X1934260Y-105562D01*
X1936546Y-102616D01*
X1939696Y-100685D01*
X1943303Y-100025D01*
X3319779Y-100025D01*
X3333800Y-99364D01*
X3337661Y-99923D01*
X3340963Y-101854D01*
X3343351Y-104902D01*
X3347059Y-119278D01*
X3351174Y-128168D01*
X3356813Y-136245D01*
X3363772Y-143154D01*
X3371799Y-148793D01*
X3380740Y-152958D01*
X3390188Y-155498D01*
X3399993Y-156362D01*
X3409797Y-155498D01*
X3419246Y-152958D01*
X3428187Y-148793D01*
X3436213Y-143154D01*
X3443173Y-136245D01*
X3448812Y-128168D01*
X3452926Y-119278D01*
X3455466Y-109778D01*
X3456127Y-102616D01*
X3457092Y-99110D01*
X3459226Y-96215D01*
X3462223Y-94183D01*
X3465779Y-93370D01*
X3540201Y-90017D01*
X3960469Y-90017D01*
X4070197Y-100025D01*
X4260900Y-100025D01*
X4264660Y-100736D01*
X4267860Y-102768D01*
X4270095Y-105867D01*
X4271162Y-108204D01*
X4276801Y-116230D01*
X4283760Y-123189D01*
X4291787Y-128828D01*
X4300728Y-132943D01*
X4310176Y-135483D01*
X4319981Y-136347D01*
X4335119Y-134823D01*
X4338828Y-136042D01*
X4341774Y-138531D01*
X4343603Y-141935D01*
X4344009Y-145796D01*
X4343654Y-150012D01*
X4344517Y-159816D01*
X4347057Y-169265D01*
X4351172Y-178206D01*
X4356811Y-186232D01*
X4363770Y-193192D01*
X4371797Y-198831D01*
X4380738Y-202946D01*
X4390186Y-205486D01*
X4399991Y-206349D01*
X4409795Y-205486D01*
X4419244Y-202946D01*
X4428185Y-198831D01*
X4436211Y-193192D01*
X4443171Y-186232D01*
X4446828Y-182067D01*
X4450029Y-180594D01*
X4453534Y-180289D01*
X4456938Y-181203D01*
X4460748Y-182930D01*
X4470196Y-185470D01*
X4480001Y-186334D01*
X4489805Y-185470D01*
X4499254Y-182981D01*
X4509262Y-178206D01*
X4513275Y-177241D01*
X4517339Y-177952D01*
X4520793Y-180187D01*
X4523790Y-183184D01*
X4531817Y-188823D01*
X4540758Y-192938D01*
X4550206Y-195478D01*
X4560011Y-196342D01*
X4569815Y-195478D01*
X4579264Y-192938D01*
X4588205Y-188823D01*
X4596231Y-183184D01*
X4603191Y-176225D01*
X4608830Y-168198D01*
X4612944Y-159258D01*
X4615484Y-149809D01*
X4616348Y-140004D01*
X4615484Y-130200D01*
X4612944Y-120751D01*
X4610049Y-114452D01*
X4609084Y-110489D01*
X4609744Y-106527D01*
X4611928Y-103124D01*
X4615281Y-100787D01*
X4619244Y-100025D01*
X5004308Y-100025D01*
X5008372Y-100838D01*
X5011775Y-103276D01*
X5013909Y-106883D01*
X5014417Y-111048D01*
X5013655Y-119989D01*
X5014518Y-129794D01*
X5017058Y-139242D01*
X5021173Y-148183D01*
X5026812Y-156210D01*
X5033772Y-163169D01*
X5041798Y-168808D01*
X5050739Y-172923D01*
X5060188Y-175463D01*
X5069992Y-176326D01*
X5079796Y-175463D01*
X5089245Y-172923D01*
X5098186Y-168808D01*
X5106212Y-163169D01*
X5113172Y-156210D01*
X5118811Y-148183D01*
X5122926Y-139242D01*
X5125466Y-129794D01*
X5126329Y-119989D01*
X5125567Y-111048D01*
X5126075Y-106883D01*
X5128209Y-103276D01*
X5131612Y-100838D01*
X5135676Y-100025D01*
X5489854Y-100025D01*
X5493715Y-100787D01*
X5497017Y-102971D01*
X5499201Y-106273D01*
X5500014Y-110185D01*
X5500014Y-234950D01*
X5499252Y-238760D01*
X5497169Y-242011D01*
X5494020Y-244195D01*
X5490260Y-245110D01*
X5485739Y-244297D01*
X5479440Y-243586D01*
X5461355Y-243586D01*
X5461355Y-288137D01*
X5489854Y-288137D01*
X5493715Y-288899D01*
X5497017Y-291134D01*
X5499201Y-294436D01*
X5500014Y-298297D01*
X5500014Y-340664D01*
X5499201Y-344576D01*
X5497017Y-347878D01*
X5493715Y-350062D01*
X5489854Y-350824D01*
X5461355Y-350824D01*
X5461355Y-363220D01*
X5460644Y-366928D01*
X5458612Y-370128D01*
X5455564Y-372364D01*
X5451906Y-373329D01*
X5435803Y-370840D01*
X5424170Y-370840D01*
X5408117Y-373329D01*
X5404459Y-372364D01*
X5401360Y-370128D01*
X5399379Y-366928D01*
X5398668Y-363220D01*
X5398668Y-350824D01*
X5354116Y-350824D01*
X5354116Y-368909D01*
X5354828Y-375259D01*
X5356707Y-380695D01*
X5359806Y-385622D01*
X5367121Y-392785D01*
X5368696Y-396646D01*
X5368594Y-400812D01*
X5360771Y-415442D01*
X5356860Y-426415D01*
X5354624Y-437794D01*
X5354167Y-449427D01*
X5355488Y-460959D01*
X5358587Y-472135D01*
X5363362Y-482752D01*
X5369661Y-492506D01*
X5377383Y-501192D01*
X5378653Y-502208D01*
X5381294Y-505561D01*
X5382310Y-509676D01*
X5381599Y-513842D01*
X5379212Y-517347D01*
X5373370Y-523036D01*
X5366308Y-532231D01*
X5360771Y-542442D01*
X5356860Y-553415D01*
X5354624Y-564794D01*
X5354167Y-576427D01*
X5355488Y-587959D01*
X5358587Y-599135D01*
X5363362Y-609752D01*
X5369661Y-619506D01*
X5377383Y-628192D01*
X5378653Y-629208D01*
X5381294Y-632561D01*
X5382310Y-636676D01*
X5381599Y-640842D01*
X5379212Y-644347D01*
X5373370Y-650036D01*
X5366308Y-659231D01*
X5360771Y-669442D01*
X5356860Y-680415D01*
X5354624Y-691794D01*
X5354167Y-703427D01*
X5355488Y-714959D01*
X5358587Y-726135D01*
X5363362Y-736752D01*
X5369661Y-746506D01*
X5377383Y-755192D01*
X5386324Y-762558D01*
X5396331Y-768502D01*
X5407101Y-772820D01*
X5418429Y-775512D01*
X5430012Y-776376D01*
X5441594Y-775512D01*
X5452872Y-772820D01*
X5463692Y-768502D01*
X5473649Y-762558D01*
X5483352Y-754532D01*
X5486704Y-752703D01*
X5490464Y-752195D01*
X5494172Y-753160D01*
X5497220Y-755396D01*
X5499252Y-758596D01*
X5500014Y-762355D01*
X5500014Y-919835D01*
X5499201Y-923747D01*
X5497017Y-926998D01*
X5493715Y-929233D01*
X5489854Y-929995D01*
X4963922Y-929995D01*
X4960010Y-929233D01*
X4956759Y-926998D01*
X4954524Y-923747D01*
X4953762Y-919835D01*
X4954524Y-915974D01*
X4956759Y-912672D01*
X4963160Y-906221D01*
X4968798Y-898194D01*
X4972964Y-889253D01*
X4975504Y-879805D01*
X4976368Y-870000D01*
X4975504Y-860196D01*
X4972964Y-850747D01*
X4968798Y-841806D01*
X4963160Y-833780D01*
X4956251Y-826820D01*
X4948174Y-821182D01*
X4939284Y-817067D01*
X4929784Y-814527D01*
X4920030Y-813663D01*
X4910226Y-814527D01*
X4900726Y-817067D01*
X4891836Y-821182D01*
X4883759Y-826820D01*
X4876850Y-833780D01*
X4871212Y-841806D01*
X4867046Y-850747D01*
X4864506Y-860196D01*
X4863642Y-870000D01*
X4864506Y-879805D01*
X4867046Y-889253D01*
X4871212Y-898194D01*
X4876850Y-906221D01*
X4883251Y-912672D01*
X4885486Y-915974D01*
X4886248Y-919835D01*
X4885486Y-923747D01*
X4883251Y-926998D01*
X4880000Y-929233D01*
X4876088Y-929995D01*
G37*

%LPC*%
G36*
X4729988Y-636371D02*
G01*
X4739792Y-635508D01*
X4749241Y-632968D01*
X4758182Y-628802D01*
X4766208Y-623163D01*
X4773168Y-616254D01*
X4778806Y-608177D01*
X4782921Y-599287D01*
X4785461Y-589788D01*
X4786325Y-580034D01*
X4785461Y-570230D01*
X4782921Y-560730D01*
X4778806Y-551840D01*
X4773168Y-543763D01*
X4766208Y-536854D01*
X4758182Y-531215D01*
X4749241Y-527050D01*
X4739792Y-524510D01*
X4729988Y-523646D01*
X4720183Y-524510D01*
X4710734Y-527050D01*
X4701794Y-531215D01*
X4693767Y-536854D01*
X4686808Y-543763D01*
X4681169Y-551840D01*
X4677054Y-560730D01*
X4674514Y-570230D01*
X4673650Y-580034D01*
X4674514Y-589788D01*
X4677054Y-599287D01*
X4681169Y-608177D01*
X4686808Y-616254D01*
X4693767Y-623163D01*
X4701794Y-628802D01*
X4710734Y-632968D01*
X4720183Y-635508D01*
G37*
G36*
X4860036Y-406349D02*
G01*
X4869789Y-405485D01*
X4879289Y-402945D01*
X4888179Y-398830D01*
X4896256Y-393192D01*
X4903165Y-386232D01*
X4908804Y-378206D01*
X4912969Y-369265D01*
X4915509Y-359816D01*
X4916373Y-350012D01*
X4915509Y-340207D01*
X4912969Y-330758D01*
X4908804Y-321818D01*
X4903165Y-313791D01*
X4896256Y-306832D01*
X4888179Y-301193D01*
X4879289Y-297078D01*
X4869789Y-294538D01*
X4860036Y-293674D01*
X4850231Y-294538D01*
X4840732Y-297078D01*
X4831842Y-301193D01*
X4823764Y-306832D01*
X4816856Y-313791D01*
X4811217Y-321818D01*
X4807051Y-330758D01*
X4804511Y-340207D01*
X4803648Y-350012D01*
X4804511Y-359816D01*
X4807051Y-369265D01*
X4811217Y-378206D01*
X4816856Y-386232D01*
X4823764Y-393192D01*
X4831842Y-398830D01*
X4840732Y-402945D01*
X4850231Y-405485D01*
G37*
G36*
X5354116Y-288137D02*
G01*
X5398668Y-288137D01*
X5398668Y-243586D01*
X5380583Y-243586D01*
X5374233Y-244297D01*
X5368798Y-246227D01*
X5363870Y-249275D01*
X5359806Y-253390D01*
X5356707Y-258267D01*
X5354828Y-263753D01*
X5354116Y-270052D01*
G37*

%LPD*%
G36*
X434136Y-929995D02*
G01*
X430225Y-929233D01*
X426872Y-926998D01*
X424688Y-923645D01*
X423976Y-919683D01*
X424789Y-915771D01*
X427126Y-910437D01*
X430479Y-898499D01*
X432155Y-886206D01*
X432155Y-873810D01*
X430479Y-861517D01*
X427126Y-849579D01*
X422198Y-838200D01*
X415747Y-827582D01*
X407924Y-817981D01*
X398830Y-809498D01*
X388721Y-802335D01*
X377698Y-796645D01*
X366014Y-792480D01*
X353872Y-789940D01*
X341122Y-789076D01*
X251866Y-789076D01*
X239115Y-789940D01*
X226974Y-792480D01*
X215290Y-796645D01*
X204266Y-802335D01*
X194157Y-809498D01*
X185064Y-817981D01*
X177241Y-827582D01*
X170789Y-838200D01*
X169468Y-841248D01*
X167233Y-844448D01*
X163931Y-846632D01*
X160070Y-847344D01*
X156210Y-846531D01*
X152958Y-844346D01*
X150774Y-841044D01*
X150012Y-837184D01*
X150012Y-202844D01*
X150774Y-198932D01*
X152958Y-195681D01*
X156210Y-193446D01*
X160070Y-192684D01*
X163931Y-193395D01*
X167233Y-195529D01*
X169468Y-198780D01*
X170789Y-201828D01*
X177241Y-212394D01*
X185064Y-222046D01*
X194157Y-230479D01*
X204266Y-237642D01*
X215290Y-243382D01*
X226974Y-247497D01*
X239115Y-250037D01*
X251866Y-250901D01*
X341122Y-250901D01*
X353872Y-250037D01*
X366014Y-247497D01*
X377698Y-243382D01*
X388721Y-237642D01*
X398830Y-230479D01*
X407924Y-222046D01*
X415747Y-212394D01*
X422198Y-201828D01*
X427126Y-190449D01*
X430479Y-178511D01*
X432155Y-166217D01*
X432155Y-153822D01*
X430479Y-141528D01*
X427126Y-129590D01*
X422198Y-118211D01*
X413105Y-103225D01*
X412648Y-99466D01*
X413613Y-95808D01*
X415848Y-92710D01*
X419049Y-90728D01*
X422808Y-90017D01*
X808685Y-90017D01*
X812952Y-90932D01*
X816457Y-93573D01*
X818489Y-97434D01*
X818743Y-101803D01*
X817118Y-105867D01*
X813968Y-108864D01*
X801471Y-116382D01*
X789533Y-125780D01*
X778764Y-136499D01*
X769416Y-148488D01*
X761542Y-161493D01*
X755294Y-175361D01*
X750773Y-189890D01*
X748030Y-204825D01*
X747115Y-220014D01*
X748030Y-235153D01*
X750773Y-250139D01*
X755294Y-264617D01*
X761542Y-278485D01*
X769416Y-291490D01*
X778764Y-303479D01*
X789533Y-314248D01*
X801471Y-323596D01*
X814476Y-331470D01*
X828344Y-337718D01*
X842873Y-342239D01*
X857808Y-344982D01*
X872998Y-345897D01*
X888187Y-344982D01*
X903122Y-342239D01*
X917651Y-337718D01*
X931519Y-331470D01*
X944524Y-323596D01*
X956462Y-314248D01*
X967232Y-303479D01*
X976579Y-291490D01*
X982218Y-282194D01*
X985266Y-279044D01*
X989279Y-277418D01*
X993648Y-277672D01*
X997508Y-279704D01*
X1000150Y-283210D01*
X1001115Y-287426D01*
X1001115Y-319430D01*
X1001826Y-325729D01*
X1003706Y-331216D01*
X1006805Y-336092D01*
X1010869Y-340207D01*
X1015796Y-343306D01*
X1021232Y-345186D01*
X1027582Y-345897D01*
X1226413Y-345897D01*
X1232763Y-345186D01*
X1238199Y-343306D01*
X1243126Y-340207D01*
X1247190Y-336092D01*
X1250289Y-331216D01*
X1252169Y-325729D01*
X1252931Y-319430D01*
X1252931Y-120548D01*
X1252169Y-114249D01*
X1250289Y-108762D01*
X1248257Y-105562D01*
X1246784Y-101498D01*
X1247140Y-97231D01*
X1249222Y-93472D01*
X1252677Y-90932D01*
X1256842Y-90017D01*
X1473911Y-90017D01*
X1477822Y-90779D01*
X1481124Y-92964D01*
X1483309Y-96266D01*
X1484071Y-100177D01*
X1484071Y-425196D01*
X1483512Y-428548D01*
X1481886Y-431546D01*
X1478127Y-436270D01*
X1475587Y-441451D01*
X1474317Y-447090D01*
X1474317Y-452882D01*
X1475587Y-458520D01*
X1478127Y-463753D01*
X1481886Y-468477D01*
X1483512Y-471424D01*
X1484071Y-474776D01*
X1484071Y-479450D01*
X1484782Y-485749D01*
X1486712Y-491235D01*
X1489811Y-496112D01*
X1493875Y-500227D01*
X1498803Y-503275D01*
X1504238Y-505206D01*
X1510588Y-505917D01*
X1709724Y-505917D01*
X1715770Y-505256D01*
X1721205Y-503326D01*
X1726133Y-500227D01*
X1728520Y-498093D01*
X1757730Y-468884D01*
X1761032Y-466699D01*
X1764944Y-465886D01*
X2029714Y-465886D01*
X2035759Y-465226D01*
X2041245Y-463346D01*
X2046122Y-460248D01*
X2048510Y-458114D01*
X2267762Y-238861D01*
X2271064Y-236677D01*
X2274925Y-235915D01*
X2300173Y-235915D01*
X2304084Y-236677D01*
X2307386Y-238861D01*
X2309571Y-242163D01*
X2310333Y-246075D01*
X2309571Y-249936D01*
X2301189Y-261823D01*
X2297074Y-270713D01*
X2294534Y-280212D01*
X2293670Y-290017D01*
X2294534Y-299770D01*
X2297074Y-309270D01*
X2301189Y-318160D01*
X2306828Y-326237D01*
X2313787Y-333146D01*
X2321814Y-338785D01*
X2330754Y-342950D01*
X2340203Y-345490D01*
X2350008Y-346354D01*
X2365146Y-344830D01*
X2368804Y-345998D01*
X2371801Y-348488D01*
X2373630Y-351942D01*
X2374036Y-355803D01*
X2373630Y-360019D01*
X2374493Y-369773D01*
X2377033Y-379272D01*
X2381199Y-388162D01*
X2386838Y-396240D01*
X2393746Y-403148D01*
X2401824Y-408787D01*
X2410714Y-412953D01*
X2420213Y-415493D01*
X2430018Y-416356D01*
X2439771Y-415493D01*
X2449271Y-412953D01*
X2458161Y-408787D01*
X2466238Y-403148D01*
X2473147Y-396240D01*
X2478786Y-388162D01*
X2481935Y-381457D01*
X2484374Y-378155D01*
X2487930Y-376123D01*
X2491994Y-375615D01*
X2500020Y-376326D01*
X2509774Y-375462D01*
X2519273Y-372922D01*
X2528163Y-368808D01*
X2536240Y-363169D01*
X2537815Y-361543D01*
X2541117Y-359359D01*
X2545029Y-358597D01*
X2548890Y-359359D01*
X2552192Y-361543D01*
X2553766Y-363169D01*
X2561844Y-368808D01*
X2570734Y-372922D01*
X2580233Y-375462D01*
X2590038Y-376326D01*
X2599791Y-375462D01*
X2609291Y-372922D01*
X2618181Y-368808D01*
X2626258Y-363169D01*
X2632811Y-356565D01*
X2636113Y-354380D01*
X2640025Y-353568D01*
X2643886Y-354380D01*
X2647188Y-356565D01*
X2653792Y-363169D01*
X2661818Y-368808D01*
X2670759Y-372922D01*
X2680208Y-375462D01*
X2690012Y-376326D01*
X2699816Y-375462D01*
X2709265Y-372922D01*
X2718206Y-368808D01*
X2726232Y-363169D01*
X2733192Y-356209D01*
X2738831Y-348183D01*
X2742946Y-339242D01*
X2745486Y-329793D01*
X2746349Y-319989D01*
X2746197Y-318211D01*
X2746705Y-314147D01*
X2748737Y-310591D01*
X2752039Y-308152D01*
X2756052Y-307187D01*
X2760065Y-307898D01*
X2763520Y-310134D01*
X2771495Y-318109D01*
X2776220Y-321919D01*
X2781452Y-324459D01*
X2787091Y-325729D01*
X2790291Y-325932D01*
X3235045Y-325932D01*
X3238957Y-326694D01*
X3242259Y-328879D01*
X3261106Y-347776D01*
X3263290Y-351028D01*
X3264103Y-354939D01*
X3264103Y-429412D01*
X3264814Y-435762D01*
X3266694Y-441198D01*
X3269792Y-446125D01*
X3273856Y-450189D01*
X3278784Y-453288D01*
X3284220Y-455218D01*
X3290570Y-455930D01*
X4189476Y-455930D01*
X4195165Y-455320D01*
X4200702Y-453491D01*
X4205681Y-450545D01*
X4209846Y-446532D01*
X4213047Y-441706D01*
X4215282Y-435711D01*
X4218482Y-422909D01*
X4220413Y-418998D01*
X4223816Y-416255D01*
X4228084Y-415239D01*
X4426458Y-410413D01*
X4430826Y-411276D01*
X4434382Y-413918D01*
X4436465Y-417830D01*
X4436719Y-422249D01*
X4434992Y-426364D01*
X4431182Y-431800D01*
X4427169Y-440486D01*
X4425137Y-443382D01*
X4422241Y-445363D01*
X4418838Y-446278D01*
X4415332Y-445973D01*
X4409795Y-444500D01*
X4399991Y-443636D01*
X4390186Y-444500D01*
X4380738Y-447040D01*
X4371797Y-451205D01*
X4363770Y-456844D01*
X4356811Y-463753D01*
X4351172Y-471830D01*
X4347057Y-480720D01*
X4344517Y-490220D01*
X4344111Y-494690D01*
X4342993Y-498500D01*
X4340504Y-501599D01*
X4337050Y-503478D01*
X4333087Y-503935D01*
X4329988Y-503631D01*
X4320184Y-504494D01*
X4310735Y-507034D01*
X4301794Y-511200D01*
X4293768Y-516839D01*
X4286808Y-523748D01*
X4281170Y-531825D01*
X4277055Y-540715D01*
X4274515Y-550214D01*
X4273651Y-560019D01*
X4274515Y-569772D01*
X4277055Y-579272D01*
X4281170Y-588162D01*
X4286808Y-596239D01*
X4293768Y-603148D01*
X4301794Y-608787D01*
X4310735Y-612952D01*
X4320184Y-615492D01*
X4329988Y-616356D01*
X4339793Y-615492D01*
X4349242Y-612952D01*
X4358182Y-608787D01*
X4366209Y-603148D01*
X4373168Y-596239D01*
X4378807Y-588162D01*
X4382922Y-579272D01*
X4385462Y-569772D01*
X4385868Y-565302D01*
X4386986Y-561492D01*
X4389475Y-558393D01*
X4392930Y-556514D01*
X4396892Y-556056D01*
X4399991Y-556361D01*
X4409795Y-555498D01*
X4419244Y-552958D01*
X4428185Y-548792D01*
X4436211Y-543153D01*
X4443171Y-536244D01*
X4448810Y-528167D01*
X4452823Y-519531D01*
X4454855Y-516635D01*
X4457750Y-514604D01*
X4461154Y-513689D01*
X4464659Y-513994D01*
X4470196Y-515467D01*
X4480001Y-516331D01*
X4489805Y-515467D01*
X4499254Y-512927D01*
X4508195Y-508812D01*
X4516221Y-503174D01*
X4523181Y-496214D01*
X4528820Y-488188D01*
X4532934Y-479247D01*
X4535474Y-469798D01*
X4536338Y-459993D01*
X4535474Y-450189D01*
X4532934Y-440740D01*
X4528820Y-431800D01*
X4523181Y-423824D01*
X4521504Y-419811D01*
X4521708Y-415442D01*
X4523638Y-411581D01*
X4527042Y-408889D01*
X4531258Y-407822D01*
X4573676Y-406806D01*
X4577638Y-407517D01*
X4581042Y-409701D01*
X4583277Y-413004D01*
X4584090Y-416966D01*
X4584090Y-919835D01*
X4583328Y-923747D01*
X4581093Y-926998D01*
X4577791Y-929233D01*
X4573930Y-929995D01*
X2343302Y-929995D01*
X2339695Y-929335D01*
X2336546Y-927404D01*
X2334260Y-924458D01*
X2333244Y-920902D01*
X2333498Y-917194D01*
X2335479Y-909777D01*
X2336342Y-900023D01*
X2335479Y-890219D01*
X2332939Y-880719D01*
X2328824Y-871829D01*
X2323185Y-863752D01*
X2313076Y-853541D01*
X2311704Y-849579D01*
X2312060Y-845362D01*
X2314143Y-841654D01*
X2326233Y-833170D01*
X2333193Y-826211D01*
X2338832Y-818184D01*
X2342946Y-809244D01*
X2345486Y-799795D01*
X2346350Y-789990D01*
X2345486Y-780186D01*
X2344674Y-777138D01*
X2344470Y-772871D01*
X2345994Y-768959D01*
X2348941Y-765962D01*
X2352903Y-764438D01*
X2357120Y-764692D01*
X2360218Y-765505D01*
X2370023Y-766368D01*
X2379776Y-765505D01*
X2389276Y-762965D01*
X2398166Y-758799D01*
X2406243Y-753160D01*
X2413152Y-746252D01*
X2418791Y-738174D01*
X2422956Y-729284D01*
X2425496Y-719785D01*
X2426360Y-710031D01*
X2425496Y-700227D01*
X2422956Y-690727D01*
X2418791Y-681837D01*
X2413152Y-673760D01*
X2406243Y-666851D01*
X2398166Y-661212D01*
X2389276Y-657047D01*
X2379776Y-654507D01*
X2370023Y-653643D01*
X2360218Y-654507D01*
X2350719Y-657047D01*
X2341829Y-661212D01*
X2333752Y-666851D01*
X2326843Y-673760D01*
X2321204Y-681837D01*
X2317038Y-690727D01*
X2314498Y-700227D01*
X2313635Y-710031D01*
X2314498Y-719785D01*
X2315311Y-722884D01*
X2315565Y-727100D01*
X2314041Y-731062D01*
X2311044Y-734009D01*
X2307132Y-735533D01*
X2302865Y-735330D01*
X2299817Y-734517D01*
X2290013Y-733653D01*
X2280208Y-734517D01*
X2270760Y-737057D01*
X2261819Y-741172D01*
X2253792Y-746810D01*
X2246833Y-753770D01*
X2241194Y-761796D01*
X2237079Y-770737D01*
X2234539Y-780186D01*
X2233676Y-789990D01*
X2234539Y-799795D01*
X2237079Y-809244D01*
X2241194Y-818184D01*
X2246833Y-826211D01*
X2256942Y-836421D01*
X2258314Y-840435D01*
X2257958Y-844651D01*
X2255875Y-848309D01*
X2243785Y-856843D01*
X2236825Y-863752D01*
X2231186Y-871829D01*
X2227072Y-880719D01*
X2224532Y-890219D01*
X2223668Y-900023D01*
X2224532Y-909777D01*
X2226513Y-917194D01*
X2226818Y-920902D01*
X2225751Y-924458D01*
X2223465Y-927404D01*
X2220315Y-929335D01*
X2216708Y-929995D01*
X1892706Y-929995D01*
X1888489Y-929081D01*
X1885035Y-926490D01*
X1882952Y-922731D01*
X1882648Y-918413D01*
X1884121Y-914400D01*
X1889556Y-905814D01*
X1895754Y-892657D01*
X1900224Y-878840D01*
X1902968Y-864514D01*
X1903882Y-849985D01*
X1902968Y-835456D01*
X1900224Y-821182D01*
X1895754Y-807364D01*
X1889556Y-794156D01*
X1881733Y-781862D01*
X1872488Y-770686D01*
X1861870Y-760730D01*
X1850085Y-752144D01*
X1837334Y-745134D01*
X1823821Y-739800D01*
X1809699Y-736142D01*
X1795272Y-734364D01*
X1780743Y-734364D01*
X1766265Y-736142D01*
X1752193Y-739800D01*
X1738680Y-745134D01*
X1725879Y-752144D01*
X1714144Y-760730D01*
X1703527Y-770686D01*
X1694230Y-781862D01*
X1686458Y-794156D01*
X1680260Y-807364D01*
X1675739Y-821182D01*
X1673047Y-835456D01*
X1672132Y-849985D01*
X1673047Y-864514D01*
X1675739Y-878840D01*
X1680260Y-892657D01*
X1686458Y-905814D01*
X1691893Y-914400D01*
X1693367Y-918413D01*
X1693062Y-922731D01*
X1690979Y-926490D01*
X1687525Y-929081D01*
X1683308Y-929995D01*
X1638706Y-929995D01*
X1634489Y-929081D01*
X1631035Y-926490D01*
X1628952Y-922731D01*
X1628648Y-918413D01*
X1630121Y-914400D01*
X1635556Y-905814D01*
X1641754Y-892657D01*
X1646224Y-878840D01*
X1648968Y-864514D01*
X1649882Y-849985D01*
X1648968Y-835456D01*
X1646224Y-821182D01*
X1641754Y-807364D01*
X1635556Y-794156D01*
X1627733Y-781862D01*
X1618488Y-770686D01*
X1607870Y-760730D01*
X1596085Y-752144D01*
X1583334Y-745134D01*
X1569821Y-739800D01*
X1555699Y-736142D01*
X1541272Y-734364D01*
X1526743Y-734364D01*
X1512265Y-736142D01*
X1498193Y-739800D01*
X1484680Y-745134D01*
X1471879Y-752144D01*
X1460144Y-760730D01*
X1449527Y-770686D01*
X1440230Y-781862D01*
X1432458Y-794156D01*
X1426260Y-807364D01*
X1421739Y-821182D01*
X1419047Y-835456D01*
X1418132Y-849985D01*
X1419047Y-864514D01*
X1421739Y-878840D01*
X1426260Y-892657D01*
X1432458Y-905814D01*
X1437894Y-914400D01*
X1439367Y-918413D01*
X1439062Y-922731D01*
X1436979Y-926490D01*
X1433525Y-929081D01*
X1429308Y-929995D01*
X1384706Y-929995D01*
X1380490Y-929081D01*
X1377035Y-926490D01*
X1374952Y-922731D01*
X1374648Y-918413D01*
X1376121Y-914400D01*
X1381556Y-905814D01*
X1387754Y-892657D01*
X1392224Y-878840D01*
X1394968Y-864514D01*
X1395882Y-849985D01*
X1394968Y-835456D01*
X1392224Y-821182D01*
X1387754Y-807364D01*
X1381556Y-794156D01*
X1373733Y-781862D01*
X1364488Y-770686D01*
X1353870Y-760730D01*
X1342085Y-752144D01*
X1329334Y-745134D01*
X1315821Y-739800D01*
X1301699Y-736142D01*
X1287272Y-734364D01*
X1272743Y-734364D01*
X1258265Y-736142D01*
X1244193Y-739800D01*
X1230680Y-745134D01*
X1217879Y-752144D01*
X1206144Y-760730D01*
X1195527Y-770686D01*
X1186230Y-781862D01*
X1178458Y-794156D01*
X1172260Y-807364D01*
X1167739Y-821182D01*
X1165047Y-835456D01*
X1164132Y-849985D01*
X1165047Y-864514D01*
X1167739Y-878840D01*
X1172260Y-892657D01*
X1178458Y-905814D01*
X1183894Y-914400D01*
X1185367Y-918413D01*
X1185062Y-922731D01*
X1182979Y-926490D01*
X1179525Y-929081D01*
X1175308Y-929995D01*
X1130706Y-929995D01*
X1126490Y-929081D01*
X1123035Y-926490D01*
X1120952Y-922731D01*
X1120648Y-918413D01*
X1122121Y-914400D01*
X1127556Y-905814D01*
X1129639Y-901344D01*
X1077366Y-901344D01*
X1077366Y-919835D01*
X1076553Y-923747D01*
X1074369Y-926998D01*
X1071067Y-929233D01*
X1067206Y-929995D01*
X984808Y-929995D01*
X980897Y-929233D01*
X977646Y-926998D01*
X975410Y-923747D01*
X974648Y-919835D01*
X974648Y-901344D01*
X922324Y-901344D01*
X924458Y-905814D01*
X929894Y-914400D01*
X931367Y-918413D01*
X931062Y-922731D01*
X928979Y-926490D01*
X925525Y-929081D01*
X921308Y-929995D01*
X898093Y-929995D01*
X894181Y-929233D01*
X890879Y-926998D01*
X888695Y-923747D01*
X887933Y-919835D01*
X887933Y-760577D01*
X887171Y-754227D01*
X885291Y-748792D01*
X882192Y-743864D01*
X878128Y-739800D01*
X873201Y-736701D01*
X867765Y-734822D01*
X861415Y-734110D01*
X682548Y-734110D01*
X676249Y-734822D01*
X670763Y-736701D01*
X664921Y-740410D01*
X661517Y-741730D01*
X657860Y-741832D01*
X654405Y-740562D01*
X651611Y-738174D01*
X649884Y-734923D01*
X647750Y-728472D01*
X642213Y-717042D01*
X635101Y-706526D01*
X626618Y-697128D01*
X616915Y-688949D01*
X606145Y-682244D01*
X594563Y-677113D01*
X582422Y-673608D01*
X569823Y-671830D01*
X557174Y-671830D01*
X544626Y-673608D01*
X532434Y-677113D01*
X520852Y-682244D01*
X510082Y-688949D01*
X500380Y-697128D01*
X491896Y-706526D01*
X484784Y-717042D01*
X479247Y-728472D01*
X475335Y-740511D01*
X473100Y-753008D01*
X472693Y-765657D01*
X474014Y-778306D01*
X477062Y-790600D01*
X481838Y-802335D01*
X488137Y-813308D01*
X495960Y-823315D01*
X505104Y-832103D01*
X515366Y-839571D01*
X526542Y-845515D01*
X538429Y-849884D01*
X550875Y-852474D01*
X563524Y-853389D01*
X576173Y-852474D01*
X588568Y-849884D01*
X600456Y-845515D01*
X611682Y-839571D01*
X621944Y-832103D01*
X631037Y-823315D01*
X637946Y-814476D01*
X641096Y-811834D01*
X645109Y-810615D01*
X649224Y-811174D01*
X652830Y-813308D01*
X655218Y-816660D01*
X656082Y-820775D01*
X656082Y-919835D01*
X655320Y-923747D01*
X653135Y-926998D01*
X649833Y-929233D01*
X645922Y-929995D01*
G37*

%LPC*%
G36*
X3420059Y-909624D02*
G01*
X3518915Y-909624D01*
X3525265Y-908913D01*
X3530701Y-906983D01*
X3535629Y-903884D01*
X3542741Y-896569D01*
X3546652Y-894994D01*
X3550818Y-895096D01*
X3565448Y-902919D01*
X3576370Y-906881D01*
X3587800Y-909066D01*
X3599383Y-909523D01*
X3610965Y-908202D01*
X3622141Y-905103D01*
X3632758Y-900379D01*
X3642512Y-894029D01*
X3651148Y-886307D01*
X3652215Y-885037D01*
X3655517Y-882396D01*
X3659632Y-881380D01*
X3663848Y-882091D01*
X3667353Y-884478D01*
X3672992Y-890320D01*
X3682237Y-897382D01*
X3692448Y-902919D01*
X3703370Y-906881D01*
X3714800Y-909066D01*
X3726383Y-909523D01*
X3737965Y-908202D01*
X3749141Y-905103D01*
X3759758Y-900379D01*
X3769512Y-894029D01*
X3778148Y-886307D01*
X3779215Y-885037D01*
X3782517Y-882396D01*
X3786632Y-881380D01*
X3790848Y-882091D01*
X3794353Y-884478D01*
X3799992Y-890320D01*
X3809237Y-897382D01*
X3819448Y-902919D01*
X3830370Y-906881D01*
X3841800Y-909066D01*
X3853383Y-909523D01*
X3864965Y-908202D01*
X3876141Y-905103D01*
X3886758Y-900379D01*
X3896512Y-894029D01*
X3905148Y-886307D01*
X3912565Y-877366D01*
X3918508Y-867359D01*
X3922826Y-856589D01*
X3925468Y-845261D01*
X3926382Y-833678D01*
X3925468Y-822096D01*
X3922826Y-810818D01*
X3920693Y-805434D01*
X3919931Y-801166D01*
X3921048Y-797001D01*
X3923792Y-793699D01*
X3927652Y-791768D01*
X3931970Y-791667D01*
X3935933Y-793292D01*
X3941826Y-797458D01*
X3950715Y-801573D01*
X3960215Y-804113D01*
X3970020Y-804976D01*
X3979773Y-804113D01*
X3989273Y-801573D01*
X3998163Y-797458D01*
X4006240Y-791819D01*
X4013149Y-784860D01*
X4018787Y-776833D01*
X4022953Y-767892D01*
X4025493Y-758444D01*
X4026357Y-748639D01*
X4025493Y-738835D01*
X4022953Y-729386D01*
X4018787Y-720445D01*
X4013149Y-712419D01*
X4006240Y-705459D01*
X3998163Y-699820D01*
X3989273Y-695706D01*
X3979773Y-693166D01*
X3970020Y-692302D01*
X3960215Y-693166D01*
X3950715Y-695706D01*
X3941826Y-699820D01*
X3933748Y-705459D01*
X3926840Y-712419D01*
X3921201Y-720445D01*
X3917035Y-729386D01*
X3914495Y-738835D01*
X3913632Y-748639D01*
X3914495Y-758444D01*
X3916629Y-766267D01*
X3916832Y-770585D01*
X3915206Y-774598D01*
X3912108Y-777544D01*
X3908044Y-779018D01*
X3903776Y-778611D01*
X3900017Y-776528D01*
X3896512Y-773328D01*
X3886758Y-767029D01*
X3876141Y-762304D01*
X3864965Y-759206D01*
X3853383Y-757885D01*
X3841800Y-758342D01*
X3830370Y-760526D01*
X3819448Y-764438D01*
X3809237Y-770026D01*
X3799992Y-777036D01*
X3794353Y-782929D01*
X3790848Y-785317D01*
X3786632Y-786028D01*
X3782517Y-784961D01*
X3779215Y-782320D01*
X3778148Y-781100D01*
X3769512Y-773328D01*
X3759758Y-767029D01*
X3749141Y-762304D01*
X3737965Y-759206D01*
X3726383Y-757885D01*
X3714800Y-758342D01*
X3703370Y-760526D01*
X3692448Y-764438D01*
X3682237Y-770026D01*
X3672992Y-777036D01*
X3667353Y-782929D01*
X3663848Y-785317D01*
X3659632Y-786028D01*
X3655517Y-784961D01*
X3652215Y-782320D01*
X3651148Y-781100D01*
X3642512Y-773328D01*
X3632758Y-767029D01*
X3622141Y-762304D01*
X3610965Y-759206D01*
X3599383Y-757885D01*
X3587800Y-758342D01*
X3576370Y-760526D01*
X3565448Y-764438D01*
X3550818Y-772312D01*
X3546652Y-772414D01*
X3542741Y-770839D01*
X3535629Y-763473D01*
X3530701Y-760425D01*
X3525265Y-758494D01*
X3518915Y-757783D01*
X3420059Y-757783D01*
X3413760Y-758494D01*
X3408273Y-760425D01*
X3403396Y-763473D01*
X3399282Y-767588D01*
X3396234Y-772464D01*
X3394303Y-777951D01*
X3393592Y-784250D01*
X3393592Y-883107D01*
X3394303Y-889457D01*
X3396234Y-894892D01*
X3399282Y-899820D01*
X3403396Y-903884D01*
X3408273Y-906983D01*
X3413760Y-908913D01*
G37*
G36*
X3040024Y-906373D02*
G01*
X3049778Y-905510D01*
X3059277Y-902969D01*
X3068167Y-898804D01*
X3076244Y-893165D01*
X3083153Y-886256D01*
X3088792Y-878179D01*
X3092958Y-869289D01*
X3095498Y-859790D01*
X3096361Y-850036D01*
X3095498Y-840232D01*
X3092958Y-830732D01*
X3088792Y-821842D01*
X3083153Y-813765D01*
X3076244Y-806856D01*
X3068167Y-801166D01*
X3058922Y-796798D01*
X3055569Y-794258D01*
X3053537Y-790549D01*
X3053181Y-786384D01*
X3054553Y-782370D01*
X3057448Y-779322D01*
X3066237Y-773176D01*
X3073146Y-766216D01*
X3078784Y-758190D01*
X3082950Y-749249D01*
X3085490Y-739800D01*
X3086354Y-729996D01*
X3085490Y-720191D01*
X3082950Y-710742D01*
X3078784Y-701802D01*
X3073146Y-693775D01*
X3066237Y-686816D01*
X3058160Y-681177D01*
X3049270Y-677062D01*
X3039770Y-674522D01*
X3030016Y-673658D01*
X3020212Y-674522D01*
X3010712Y-677062D01*
X3001822Y-681177D01*
X2993745Y-686816D01*
X2986836Y-693775D01*
X2981198Y-701802D01*
X2977032Y-710742D01*
X2974492Y-720191D01*
X2973628Y-729996D01*
X2974492Y-739800D01*
X2977032Y-749249D01*
X2981198Y-758190D01*
X2986836Y-766216D01*
X2993745Y-773176D01*
X3001822Y-778814D01*
X3011068Y-783183D01*
X3014421Y-785774D01*
X3016453Y-789432D01*
X3016808Y-793648D01*
X3015437Y-797610D01*
X3012541Y-800709D01*
X3003753Y-806856D01*
X2996844Y-813765D01*
X2991205Y-821842D01*
X2987040Y-830732D01*
X2984500Y-840232D01*
X2983636Y-850036D01*
X2984500Y-859790D01*
X2987040Y-869289D01*
X2991205Y-878179D01*
X2996844Y-886256D01*
X3003753Y-893165D01*
X3011830Y-898804D01*
X3020720Y-902969D01*
X3030220Y-905510D01*
G37*
G36*
X3240024Y-856335D02*
G01*
X3249777Y-855471D01*
X3259277Y-852932D01*
X3268167Y-848817D01*
X3276244Y-843178D01*
X3283153Y-836218D01*
X3288792Y-828192D01*
X3292957Y-819251D01*
X3295497Y-809802D01*
X3296361Y-799998D01*
X3295497Y-790194D01*
X3292957Y-780745D01*
X3288792Y-771804D01*
X3283153Y-763778D01*
X3276244Y-756818D01*
X3268167Y-751179D01*
X3259277Y-747064D01*
X3249777Y-744524D01*
X3240024Y-743661D01*
X3230219Y-744524D01*
X3220720Y-747064D01*
X3211830Y-751179D01*
X3203752Y-756818D01*
X3196844Y-763778D01*
X3191205Y-771804D01*
X3187039Y-780745D01*
X3184499Y-790194D01*
X3183636Y-799998D01*
X3184499Y-809802D01*
X3187039Y-819251D01*
X3191205Y-828192D01*
X3196844Y-836218D01*
X3203752Y-843178D01*
X3211830Y-848817D01*
X3220720Y-852932D01*
X3230219Y-855471D01*
G37*
G36*
X4109974Y-806348D02*
G01*
X4119778Y-805484D01*
X4129278Y-802944D01*
X4138168Y-798830D01*
X4146245Y-793191D01*
X4153154Y-786231D01*
X4158792Y-778205D01*
X4162958Y-769264D01*
X4165498Y-759815D01*
X4166362Y-750011D01*
X4165498Y-740206D01*
X4162958Y-730758D01*
X4158792Y-721817D01*
X4153154Y-713790D01*
X4146245Y-706831D01*
X4138168Y-701192D01*
X4129278Y-697077D01*
X4119778Y-694537D01*
X4109974Y-693674D01*
X4100220Y-694537D01*
X4090720Y-697077D01*
X4081830Y-701192D01*
X4073753Y-706831D01*
X4066844Y-713790D01*
X4061206Y-721817D01*
X4057040Y-730758D01*
X4054500Y-740206D01*
X4053636Y-750011D01*
X4054500Y-759815D01*
X4057040Y-769264D01*
X4061206Y-778205D01*
X4066844Y-786231D01*
X4073753Y-793191D01*
X4081830Y-798830D01*
X4090720Y-802944D01*
X4100220Y-805484D01*
G37*
G36*
X922324Y-798626D02*
G01*
X974648Y-798626D01*
X974648Y-746252D01*
X963879Y-752144D01*
X952144Y-760730D01*
X941527Y-770686D01*
X932230Y-781862D01*
X924458Y-794156D01*
G37*
G36*
X1077366Y-798626D02*
G01*
X1129639Y-798626D01*
X1127556Y-794156D01*
X1119733Y-781862D01*
X1110488Y-770686D01*
X1099870Y-760730D01*
X1088085Y-752144D01*
X1077366Y-746252D01*
G37*
G36*
X4390034Y-766368D02*
G01*
X4399788Y-765505D01*
X4409287Y-762965D01*
X4418177Y-758799D01*
X4426254Y-753160D01*
X4433163Y-746252D01*
X4438802Y-738174D01*
X4442968Y-729284D01*
X4445508Y-719785D01*
X4446371Y-710031D01*
X4445508Y-700227D01*
X4442968Y-690727D01*
X4438802Y-681837D01*
X4433163Y-673760D01*
X4426254Y-666851D01*
X4418177Y-661212D01*
X4409287Y-657047D01*
X4399788Y-654507D01*
X4390034Y-653643D01*
X4380230Y-654507D01*
X4370730Y-657047D01*
X4361840Y-661212D01*
X4353763Y-666851D01*
X4346854Y-673760D01*
X4341215Y-681837D01*
X4337050Y-690727D01*
X4334510Y-700227D01*
X4333646Y-710031D01*
X4334510Y-719785D01*
X4337050Y-729284D01*
X4341215Y-738174D01*
X4346854Y-746252D01*
X4353763Y-753160D01*
X4361840Y-758799D01*
X4370730Y-762965D01*
X4380230Y-765505D01*
G37*
G36*
X2519984Y-746353D02*
G01*
X2529789Y-745490D01*
X2539238Y-742950D01*
X2548178Y-738784D01*
X2556205Y-733145D01*
X2563164Y-726236D01*
X2568803Y-718159D01*
X2572918Y-709269D01*
X2575458Y-699770D01*
X2576322Y-690016D01*
X2575458Y-680212D01*
X2572918Y-670712D01*
X2568803Y-661822D01*
X2563164Y-653745D01*
X2556205Y-646836D01*
X2548178Y-641197D01*
X2539238Y-637032D01*
X2529789Y-634492D01*
X2519984Y-633628D01*
X2510180Y-634492D01*
X2500731Y-637032D01*
X2491790Y-641197D01*
X2483764Y-646836D01*
X2476804Y-653745D01*
X2471166Y-661822D01*
X2467051Y-670712D01*
X2464511Y-680212D01*
X2463647Y-690016D01*
X2464511Y-699770D01*
X2467051Y-709269D01*
X2471166Y-718159D01*
X2476804Y-726236D01*
X2483764Y-733145D01*
X2491790Y-738784D01*
X2500731Y-742950D01*
X2510180Y-745490D01*
G37*
G36*
X1810004Y-706374D02*
G01*
X1819808Y-705510D01*
X1829257Y-702970D01*
X1838198Y-698804D01*
X1846224Y-693166D01*
X1853184Y-686257D01*
X1858822Y-678180D01*
X1862937Y-669290D01*
X1865477Y-659790D01*
X1866341Y-650036D01*
X1865477Y-640232D01*
X1862937Y-630732D01*
X1856486Y-617067D01*
X1856486Y-612952D01*
X1862937Y-599287D01*
X1865477Y-589788D01*
X1866341Y-580034D01*
X1865477Y-570230D01*
X1862937Y-560730D01*
X1858822Y-551840D01*
X1853184Y-543763D01*
X1846224Y-536854D01*
X1838198Y-531215D01*
X1829257Y-527050D01*
X1819808Y-524510D01*
X1810004Y-523646D01*
X1800199Y-524510D01*
X1790750Y-527050D01*
X1781810Y-531215D01*
X1773783Y-536854D01*
X1766824Y-543763D01*
X1761185Y-551840D01*
X1757070Y-560730D01*
X1754530Y-570230D01*
X1753666Y-580034D01*
X1754530Y-589788D01*
X1757070Y-599287D01*
X1763522Y-612952D01*
X1763522Y-617067D01*
X1757070Y-630732D01*
X1754530Y-640232D01*
X1753666Y-650036D01*
X1754530Y-659790D01*
X1757070Y-669290D01*
X1761185Y-678180D01*
X1766824Y-686257D01*
X1773783Y-693166D01*
X1781810Y-698804D01*
X1790750Y-702970D01*
X1800199Y-705510D01*
G37*
G36*
X1580032Y-686358D02*
G01*
X1589786Y-685495D01*
X1599285Y-682955D01*
X1608175Y-678789D01*
X1616252Y-673150D01*
X1623161Y-666242D01*
X1628800Y-658164D01*
X1632966Y-649274D01*
X1635506Y-639775D01*
X1636369Y-630021D01*
X1635506Y-620217D01*
X1632966Y-610717D01*
X1628800Y-601827D01*
X1623161Y-593750D01*
X1616252Y-586841D01*
X1608175Y-581202D01*
X1599285Y-577037D01*
X1589786Y-574497D01*
X1580032Y-573633D01*
X1570228Y-574497D01*
X1560728Y-577037D01*
X1551838Y-581202D01*
X1543761Y-586841D01*
X1536852Y-593750D01*
X1531213Y-601827D01*
X1527048Y-610717D01*
X1524508Y-620217D01*
X1523644Y-630021D01*
X1524508Y-639775D01*
X1527048Y-649274D01*
X1531213Y-658164D01*
X1536852Y-666242D01*
X1543761Y-673150D01*
X1551838Y-678789D01*
X1560728Y-682955D01*
X1570228Y-685495D01*
G37*
G36*
X2900019Y-686358D02*
G01*
X2909773Y-685495D01*
X2919272Y-682955D01*
X2928162Y-678789D01*
X2936240Y-673150D01*
X2943148Y-666242D01*
X2948787Y-658164D01*
X2952953Y-649274D01*
X2955493Y-639775D01*
X2956356Y-630021D01*
X2955493Y-620217D01*
X2952953Y-610717D01*
X2948787Y-601827D01*
X2943148Y-593750D01*
X2936240Y-586841D01*
X2928162Y-581202D01*
X2919272Y-577037D01*
X2909773Y-574497D01*
X2900019Y-573633D01*
X2890215Y-574497D01*
X2880715Y-577037D01*
X2871825Y-581202D01*
X2863748Y-586841D01*
X2856839Y-593750D01*
X2851200Y-601827D01*
X2847035Y-610717D01*
X2844495Y-620217D01*
X2843631Y-630021D01*
X2844495Y-639775D01*
X2847035Y-649274D01*
X2851200Y-658164D01*
X2856839Y-666242D01*
X2863748Y-673150D01*
X2871825Y-678789D01*
X2880715Y-682955D01*
X2890215Y-685495D01*
G37*
G36*
X319989Y-676351D02*
G01*
X329793Y-675487D01*
X339242Y-672947D01*
X348183Y-668832D01*
X356209Y-663194D01*
X363169Y-656234D01*
X368808Y-648208D01*
X372922Y-639267D01*
X375462Y-629818D01*
X376326Y-620014D01*
X375462Y-610209D01*
X372922Y-600760D01*
X368808Y-591820D01*
X363169Y-583793D01*
X356209Y-576834D01*
X348183Y-571195D01*
X339242Y-567080D01*
X329793Y-564540D01*
X319989Y-563676D01*
X310184Y-564540D01*
X300736Y-567080D01*
X291795Y-571195D01*
X283768Y-576834D01*
X276809Y-583793D01*
X271170Y-591820D01*
X267055Y-600760D01*
X264515Y-610209D01*
X263652Y-620014D01*
X264515Y-629818D01*
X267055Y-639267D01*
X271170Y-648208D01*
X276809Y-656234D01*
X283768Y-663194D01*
X291795Y-668832D01*
X300736Y-672947D01*
X310184Y-675487D01*
G37*
G36*
X2760014Y-676351D02*
G01*
X2769768Y-675487D01*
X2779268Y-672947D01*
X2788158Y-668782D01*
X2796235Y-663143D01*
X2803144Y-656234D01*
X2808782Y-648157D01*
X2812948Y-639267D01*
X2815488Y-629767D01*
X2816352Y-620014D01*
X2815488Y-610209D01*
X2812948Y-600710D01*
X2808782Y-591820D01*
X2803144Y-583742D01*
X2796235Y-576834D01*
X2788158Y-571195D01*
X2779268Y-567029D01*
X2769768Y-564489D01*
X2760014Y-563626D01*
X2750210Y-564489D01*
X2740710Y-567029D01*
X2731820Y-571195D01*
X2723743Y-576834D01*
X2716834Y-583742D01*
X2711196Y-591820D01*
X2707030Y-600710D01*
X2704490Y-610209D01*
X2703626Y-620014D01*
X2704490Y-629767D01*
X2707030Y-639267D01*
X2711196Y-648157D01*
X2716834Y-656234D01*
X2723743Y-663143D01*
X2731820Y-668782D01*
X2740710Y-672947D01*
X2750210Y-675487D01*
G37*
G36*
X3350006Y-666343D02*
G01*
X3359810Y-665480D01*
X3369259Y-662940D01*
X3378200Y-658825D01*
X3386226Y-653186D01*
X3393186Y-646226D01*
X3398824Y-638200D01*
X3402939Y-629259D01*
X3405479Y-619810D01*
X3406343Y-610006D01*
X3405479Y-600202D01*
X3402939Y-590753D01*
X3398824Y-581812D01*
X3393186Y-573786D01*
X3386226Y-566826D01*
X3378200Y-561187D01*
X3369259Y-557072D01*
X3359810Y-554532D01*
X3350006Y-553669D01*
X3340201Y-554532D01*
X3330752Y-557072D01*
X3321812Y-561187D01*
X3313785Y-566826D01*
X3306826Y-573786D01*
X3301187Y-581812D01*
X3297072Y-590753D01*
X3294532Y-600202D01*
X3293668Y-610006D01*
X3294532Y-619810D01*
X3297072Y-629259D01*
X3301187Y-638200D01*
X3306826Y-646226D01*
X3313785Y-653186D01*
X3321812Y-658825D01*
X3330752Y-662940D01*
X3340201Y-665480D01*
G37*
G36*
X1230020Y-606348D02*
G01*
X1239774Y-605485D01*
X1249273Y-602945D01*
X1258163Y-598830D01*
X1266240Y-593191D01*
X1273149Y-586232D01*
X1278788Y-578205D01*
X1282954Y-569264D01*
X1285494Y-559816D01*
X1286357Y-550011D01*
X1285494Y-540207D01*
X1282954Y-530758D01*
X1278788Y-521817D01*
X1273149Y-513791D01*
X1266240Y-506831D01*
X1258163Y-501192D01*
X1249273Y-497078D01*
X1239774Y-494538D01*
X1230020Y-493674D01*
X1220216Y-494538D01*
X1210716Y-497078D01*
X1201826Y-501192D01*
X1193749Y-506831D01*
X1186840Y-513791D01*
X1181201Y-521817D01*
X1177036Y-530758D01*
X1174496Y-540207D01*
X1173632Y-550011D01*
X1174496Y-559816D01*
X1177036Y-569264D01*
X1181201Y-578205D01*
X1186840Y-586232D01*
X1193749Y-593191D01*
X1201826Y-598830D01*
X1210716Y-602945D01*
X1220216Y-605485D01*
G37*
G36*
X3880002Y-596341D02*
G01*
X3889806Y-595477D01*
X3899255Y-592937D01*
X3908196Y-588822D01*
X3916222Y-583184D01*
X3923182Y-576224D01*
X3928821Y-568198D01*
X3932936Y-559257D01*
X3935476Y-549808D01*
X3936339Y-540004D01*
X3935476Y-530199D01*
X3932936Y-520750D01*
X3928821Y-511809D01*
X3923182Y-503783D01*
X3916222Y-496824D01*
X3908196Y-491185D01*
X3899255Y-487070D01*
X3889806Y-484530D01*
X3880002Y-483666D01*
X3870198Y-484530D01*
X3860749Y-487070D01*
X3851808Y-491185D01*
X3843782Y-496824D01*
X3836822Y-503783D01*
X3831183Y-511809D01*
X3827068Y-520750D01*
X3824528Y-530199D01*
X3823665Y-540004D01*
X3824528Y-549808D01*
X3827068Y-559257D01*
X3831183Y-568198D01*
X3836822Y-576224D01*
X3843782Y-583184D01*
X3851808Y-588822D01*
X3860749Y-592937D01*
X3870198Y-595477D01*
G37*
G36*
X900023Y-596341D02*
G01*
X909777Y-595477D01*
X919276Y-592937D01*
X928166Y-588822D01*
X936244Y-583184D01*
X937818Y-581558D01*
X941120Y-579374D01*
X944981Y-578612D01*
X948893Y-579374D01*
X952195Y-581558D01*
X953769Y-583184D01*
X961796Y-588822D01*
X970737Y-592937D01*
X980186Y-595477D01*
X989990Y-596341D01*
X999794Y-595477D01*
X1009243Y-592937D01*
X1018184Y-588822D01*
X1026210Y-583184D01*
X1033170Y-576224D01*
X1038809Y-568198D01*
X1042924Y-559257D01*
X1045464Y-549808D01*
X1046327Y-540004D01*
X1045464Y-530199D01*
X1042924Y-520750D01*
X1038809Y-511809D01*
X1033170Y-503783D01*
X1026210Y-496824D01*
X1018184Y-491185D01*
X1009243Y-487070D01*
X999794Y-484530D01*
X989990Y-483666D01*
X980186Y-484530D01*
X970737Y-487070D01*
X961796Y-491185D01*
X953769Y-496824D01*
X952195Y-498449D01*
X948893Y-500634D01*
X944981Y-501396D01*
X941120Y-500634D01*
X937818Y-498449D01*
X936244Y-496824D01*
X928166Y-491185D01*
X919276Y-487070D01*
X909777Y-484530D01*
X900023Y-483666D01*
X895807Y-484022D01*
X891946Y-483616D01*
X888492Y-481787D01*
X886002Y-478840D01*
X884834Y-475132D01*
X886358Y-459993D01*
X885494Y-450189D01*
X882954Y-440740D01*
X878789Y-431800D01*
X873150Y-423773D01*
X866241Y-416814D01*
X858164Y-411175D01*
X849274Y-407060D01*
X839774Y-404520D01*
X830021Y-403656D01*
X820216Y-404520D01*
X810717Y-407060D01*
X801827Y-411175D01*
X793750Y-416814D01*
X786841Y-423773D01*
X781202Y-431800D01*
X777036Y-440740D01*
X774496Y-450189D01*
X773734Y-458724D01*
X772668Y-462483D01*
X770280Y-465531D01*
X766927Y-467461D01*
X763117Y-468020D01*
X749808Y-464515D01*
X740003Y-463651D01*
X730199Y-464515D01*
X720750Y-467055D01*
X711809Y-471170D01*
X703783Y-476808D01*
X696823Y-483768D01*
X691184Y-491794D01*
X687070Y-500735D01*
X684530Y-510184D01*
X683666Y-519988D01*
X684530Y-529793D01*
X687070Y-539242D01*
X691184Y-548182D01*
X696823Y-556209D01*
X703783Y-563168D01*
X711809Y-568807D01*
X720750Y-572922D01*
X730199Y-575462D01*
X740003Y-576326D01*
X749808Y-575462D01*
X759256Y-572922D01*
X768197Y-568807D01*
X776224Y-563168D01*
X783183Y-556209D01*
X788822Y-548182D01*
X792937Y-539242D01*
X795477Y-529793D01*
X796239Y-521258D01*
X797306Y-517499D01*
X799693Y-514451D01*
X803046Y-512521D01*
X806907Y-511962D01*
X820216Y-515467D01*
X830021Y-516331D01*
X834186Y-515975D01*
X838047Y-516382D01*
X841502Y-518210D01*
X843991Y-521157D01*
X845159Y-524865D01*
X843635Y-540004D01*
X844499Y-549808D01*
X847039Y-559257D01*
X851204Y-568198D01*
X856843Y-576224D01*
X863752Y-583184D01*
X871829Y-588822D01*
X880719Y-592937D01*
X890219Y-595477D01*
G37*
G36*
X2650032Y-536346D02*
G01*
X2659786Y-535482D01*
X2669286Y-532942D01*
X2678176Y-528828D01*
X2686253Y-523189D01*
X2693162Y-516229D01*
X2698800Y-508203D01*
X2702966Y-499262D01*
X2705506Y-489813D01*
X2706370Y-480009D01*
X2705506Y-470204D01*
X2702966Y-460756D01*
X2698800Y-451815D01*
X2693162Y-443788D01*
X2686253Y-436829D01*
X2678176Y-431190D01*
X2669286Y-427075D01*
X2659786Y-424535D01*
X2650032Y-423672D01*
X2640228Y-424535D01*
X2630728Y-427075D01*
X2621838Y-431190D01*
X2613761Y-436829D01*
X2606852Y-443788D01*
X2601214Y-451815D01*
X2597048Y-460756D01*
X2594508Y-470204D01*
X2593644Y-480009D01*
X2594508Y-489813D01*
X2597048Y-499262D01*
X2601214Y-508203D01*
X2606852Y-516229D01*
X2613761Y-523189D01*
X2621838Y-528828D01*
X2630728Y-532942D01*
X2640228Y-535482D01*
G37*
G36*
X319989Y-506374D02*
G01*
X329793Y-505510D01*
X339242Y-502970D01*
X348183Y-498805D01*
X356209Y-493166D01*
X363169Y-486257D01*
X368808Y-478180D01*
X372922Y-469290D01*
X375462Y-459790D01*
X376326Y-450037D01*
X375462Y-440232D01*
X372922Y-430733D01*
X368808Y-421843D01*
X363169Y-413766D01*
X356209Y-406857D01*
X348183Y-401218D01*
X339242Y-397052D01*
X329793Y-394512D01*
X319989Y-393649D01*
X310184Y-394512D01*
X300736Y-397052D01*
X291795Y-401218D01*
X283768Y-406857D01*
X276809Y-413766D01*
X271170Y-421843D01*
X267055Y-430733D01*
X264515Y-440232D01*
X263652Y-450037D01*
X264515Y-459790D01*
X267055Y-469290D01*
X271170Y-478180D01*
X276809Y-486257D01*
X283768Y-493166D01*
X291795Y-498805D01*
X300736Y-502970D01*
X310184Y-505510D01*
G37*
G36*
X3020009Y-486359D02*
G01*
X3029762Y-485495D01*
X3039262Y-482955D01*
X3048152Y-478790D01*
X3056229Y-473151D01*
X3063138Y-466242D01*
X3068777Y-458165D01*
X3072942Y-449275D01*
X3075482Y-439775D01*
X3076346Y-430022D01*
X3075482Y-420217D01*
X3072942Y-410718D01*
X3068777Y-401828D01*
X3063138Y-393750D01*
X3056229Y-386842D01*
X3048152Y-381203D01*
X3039262Y-377037D01*
X3029762Y-374497D01*
X3020009Y-373634D01*
X3010204Y-374497D01*
X3000705Y-377037D01*
X2991815Y-381203D01*
X2983738Y-386842D01*
X2976829Y-393750D01*
X2971190Y-401828D01*
X2967024Y-410718D01*
X2964484Y-420217D01*
X2963621Y-430022D01*
X2964484Y-439775D01*
X2967024Y-449275D01*
X2971190Y-458165D01*
X2976829Y-466242D01*
X2983738Y-473151D01*
X2991815Y-478790D01*
X3000705Y-482955D01*
X3010204Y-485495D01*
G37*
G36*
X1280007Y-466343D02*
G01*
X1289812Y-465480D01*
X1299260Y-462940D01*
X1308201Y-458825D01*
X1316228Y-453186D01*
X1323187Y-446227D01*
X1328826Y-438200D01*
X1332941Y-429259D01*
X1335481Y-419811D01*
X1336344Y-410006D01*
X1335481Y-400202D01*
X1332941Y-390753D01*
X1328826Y-381812D01*
X1323187Y-373786D01*
X1316228Y-366826D01*
X1308201Y-361188D01*
X1299260Y-357073D01*
X1289812Y-354533D01*
X1280007Y-353669D01*
X1270203Y-354533D01*
X1260754Y-357073D01*
X1251813Y-361188D01*
X1243787Y-366826D01*
X1236827Y-373786D01*
X1231188Y-381812D01*
X1227074Y-390753D01*
X1224534Y-400202D01*
X1223670Y-410006D01*
X1224534Y-419811D01*
X1227074Y-429259D01*
X1231188Y-438200D01*
X1236827Y-446227D01*
X1243787Y-453186D01*
X1251813Y-458825D01*
X1260754Y-462940D01*
X1270203Y-465480D01*
G37*
G36*
X563524Y-368401D02*
G01*
X576173Y-367487D01*
X588568Y-364845D01*
X600456Y-360527D01*
X611682Y-354584D01*
X621944Y-347116D01*
X631037Y-338328D01*
X638860Y-328320D01*
X645210Y-317347D01*
X649935Y-305562D01*
X652983Y-293268D01*
X654304Y-280670D01*
X653897Y-268020D01*
X651662Y-255524D01*
X647750Y-243433D01*
X642213Y-232054D01*
X635101Y-221538D01*
X626618Y-212140D01*
X616915Y-203962D01*
X606145Y-197256D01*
X594563Y-192125D01*
X582422Y-188620D01*
X569823Y-186842D01*
X557174Y-186842D01*
X544626Y-188620D01*
X532434Y-192125D01*
X520852Y-197256D01*
X510082Y-203962D01*
X500380Y-212140D01*
X491896Y-221538D01*
X484784Y-232054D01*
X479247Y-243433D01*
X475335Y-255524D01*
X473100Y-268020D01*
X472693Y-280670D01*
X474014Y-293268D01*
X477062Y-305562D01*
X481838Y-317347D01*
X488137Y-328320D01*
X495960Y-338328D01*
X505104Y-347116D01*
X515366Y-354584D01*
X526542Y-360527D01*
X538429Y-364845D01*
X550875Y-367487D01*
G37*

%LPD*%
G36*
X682000Y-760001D02*
G01*
X861999Y-760001D01*
X861999Y-940000D01*
X682000Y-940000D01*
G37*
D35*
G01*
X1026007Y-850011D03*
G01*
X1280007Y-850011D03*
G01*
X1534007Y-850011D03*
G01*
X1788007Y-850011D03*
G36*
X3419497Y-783694D02*
G01*
X3519497Y-783694D01*
X3519497Y-883693D01*
X3419497Y-883693D01*
G37*
D37*
G01*
X3596487Y-833704D03*
G01*
X3723487Y-833704D03*
G01*
X3850487Y-833704D03*
D36*
G01*
X5430011Y-319506D03*
D37*
G01*
X5430011Y-446506D03*
G01*
X5430011Y-573506D03*
G01*
X5430011Y-700506D03*
G36*
X5656503Y-179999D02*
G01*
X5756503Y-179999D01*
X5756503Y-279999D01*
X5656503Y-279999D01*
G37*
G01*
X5833516Y-229996D03*
G36*
X5656503Y-740001D02*
G01*
X5756503Y-740001D01*
X5756503Y-840000D01*
X5656503Y-840000D01*
G37*
G01*
X5833516Y-789990D03*
D38*
G01*
X563498Y-277520D03*
G01*
X563498Y-762507D03*
D39*
G01*
X1126997Y-219989D03*
D40*
G01*
X872997Y-219989D03*
D17*
G01*
X740003Y-519988D03*
G01*
X829995Y-459994D03*
G01*
X1229995Y-550011D03*
G01*
X1280007Y-410006D03*
G01*
X319989Y-450011D03*
G01*
X319989Y-620013D03*
G01*
X1580006Y-629996D03*
G01*
X1810004Y-580009D03*
G01*
X1810004Y-650011D03*
G01*
X1929993Y-219989D03*
G01*
X2290013Y-789990D03*
G01*
X2280005Y-899998D03*
G01*
X2369997Y-710006D03*
G01*
X3029991Y-729995D03*
G01*
X2350008Y-289991D03*
G01*
X2499995Y-319989D03*
G01*
X2590012Y-319989D03*
G01*
X2690012Y-319989D03*
G01*
X2650007Y-480009D03*
G01*
X3199993Y-389991D03*
G01*
X3019983Y-429996D03*
G01*
X3239998Y-880008D03*
G01*
X3239998Y-799998D03*
G01*
X3350006Y-610006D03*
G01*
X3880002Y-540004D03*
G01*
X3969994Y-748639D03*
G01*
X4109999Y-750011D03*
G01*
X4539995Y-880008D03*
G01*
X4390009Y-710006D03*
G01*
X4139996Y-380009D03*
G01*
X4059986Y-350012D03*
G01*
X4319981Y-80010D03*
G01*
X4480001Y-129997D03*
G01*
X4399991Y-499998D03*
G01*
X4329988Y-559993D03*
G01*
X4480001Y-459994D03*
G01*
X3810000Y-389991D03*
G01*
X4399991Y-150012D03*
G01*
X4729988Y-580009D03*
G01*
X4650003Y-880008D03*
G01*
X4860010Y-350012D03*
G01*
X4920005Y-870000D03*
G01*
X4560011Y-140004D03*
G01*
X5069992Y-119989D03*
G01*
X1599996Y-329996D03*
G01*
X2429992Y-359994D03*
G01*
X4539995Y-799998D03*
G01*
X2759989Y-619988D03*
G01*
X1880006Y-129997D03*
G01*
X2899994Y-629996D03*
G01*
X2519984Y-689990D03*
G01*
X3399993Y-99999D03*
G01*
X2281681Y-489991D03*
G01*
X2249931Y-409955D03*
G01*
X1659991Y-399999D03*
G01*
X1550009Y-399999D03*
G01*
X989990Y-540004D03*
G01*
X3039999Y-850011D03*
G01*
X899998Y-540004D03*
D38*
X341495Y-880008D02*
G01*
X251495Y-880008D01*
X341495Y-160020D02*
G01*
X251495Y-160020D01*
M02*
