M48
METRIC,LZ,000.000
;FILE_FORMAT=3:3
;TYPE=PLATED
;Layer: Drill PTH
;EasyEDA v6.4.20.6, 2021-07-19T17:35:24+02:00
;4fc8b908a01b444f87dbcbd8e6e61994,c893d1cfc3b04c85b30658aade316d97,10
;Gerber Generator version 0.2
;Holesize 1 = 0.305 mm
T01C0.305
;Holesize 2 = 0.600 mm
T02C0.600
;Holesize 3 = 0.701 mm
T03C0.701
;Holesize 4 = 0.751 mm
T04C0.751
;Holesize 5 = 1.101 mm
T05C1.101
;Holesize 6 = 1.200 mm
T06C1.200
%
G05
G90
T01
X007400Y-005200
X008300Y-004600
X012300Y-005500
X012800Y-004100
X003200Y-004500
X003200Y-006200
X015800Y-006300
X018100Y-005800
X018100Y-006500
X019300Y-002200
X022900Y-007900
X022800Y-009000
X023700Y-007100
X030300Y-007300
X023500Y-002900
X025000Y-003200
X025900Y-003200
X026900Y-003200
X026500Y-004800
X032000Y-003900
X030200Y-004300
X032400Y-008800
X032400Y-008000
X033500Y-006100
X038800Y-005400
X039700Y-007486
X041100Y-007500
X045400Y-008800
X043900Y-007100
X041400Y-003800
X040600Y-003500
X043200Y-000800
X044800Y-001300
X044000Y-005000
X043300Y-005600
X044800Y-004600
X038100Y-003900
X044000Y-001500
X047300Y-005800
X046500Y-008800
X048600Y-003500
X049200Y-008700
X045600Y-001400
X050700Y-001200
X016000Y-003300
X024300Y-003600
X045400Y-008000
X027600Y-006200
X018800Y-001300
X029000Y-006300
X025200Y-006900
X034000Y-001000
X022817Y-004900
X022499Y-004100
X016600Y-004000
X015500Y-004000
X009900Y-005400
X030400Y-008500
X009000Y-005400
T02
X034695Y-008337
X035965Y-008337
X037235Y-008337
X038505Y-008337
X054300Y-003195
X054300Y-004465
X054300Y-005735
X054300Y-007005
T03
X002565Y-008800G85X003365Y-008800
X002565Y-001600G85X003365Y-001600
X005635Y-002775
X005635Y-007625
T04
X057065Y-002300
X058335Y-002300
X057065Y-007900
X058335Y-007900
T05
X007720Y-008500
X010260Y-008500
X012800Y-008500
X015340Y-008500
X017880Y-008500
T06
X011270Y-002200
X008730Y-002200
M30
